<?xml version="1.0" standalone="no"?>
<!DOCTYPE svg PUBLIC "-//W3C//DTD SVG 20010904//EN"
 "http://www.w3.org/TR/2001/REC-SVG-20010904/DTD/svg10.dtd">
<svg version="1.0" xmlns="http://www.w3.org/2000/svg"
 width="360.000000pt" height="360.000000pt" viewBox="0 0 360.000000 360.000000"
 preserveAspectRatio="xMidYMid meet">
<metadata>
Created by potrace 1.16, written by Peter Selinger 2001-2019
</metadata>
<g transform="translate(0.000000,360.000000) scale(0.100000,-0.100000)"
fill="#000000" stroke="none">
<path d="M2468 3382 c-7 -9 -37 -29 -65 -44 -50 -25 -53 -26 -53 -8 0 13 -5
18 -15 14 -8 -4 -15 -14 -15 -23 0 -12 2 -13 9 -3 7 11 9 10 14 -2 5 -12 -1
-20 -18 -26 -15 -6 -27 -20 -31 -37 -10 -50 -13 -53 -41 -53 -27 0 -113 -63
-101 -75 2 -3 22 11 44 30 25 22 49 35 67 35 28 0 31 3 41 51 6 29 91 93 138
104 15 4 29 13 32 21 3 8 16 19 28 24 l23 9 -22 0 c-12 1 -28 -7 -35 -17z"/>
<path d="M2737 3344 c-17 -23 -24 -24 -70 -20 -29 3 -70 12 -92 20 -22 8 -53
15 -70 14 -25 0 -23 -2 12 -8 23 -5 51 -13 62 -19 29 -16 129 -23 151 -11 20
11 46 50 33 50 -4 0 -16 -12 -26 -26z"/>
<path d="M1080 3352 c-8 -2 -24 -12 -35 -22 -11 -10 -45 -20 -79 -24 -67 -7
-105 -25 -159 -75 -34 -32 -40 -34 -67 -24 -18 7 -32 8 -36 2 -3 -5 -2 -9 3
-8 14 2 27 -1 42 -10 12 -8 6 -19 -32 -55 -28 -26 -42 -46 -34 -49 8 -2 12
-25 12 -64 0 -34 3 -59 7 -56 5 2 6 35 3 73 -4 66 8 103 21 63 3 -10 9 -25 13
-33 4 -8 8 -33 10 -55 3 -55 11 -58 11 -3 0 49 12 62 43 46 10 -5 17 -5 17 0
0 14 -35 21 -54 10 -12 -7 -18 -4 -22 9 -3 10 -10 26 -15 35 -7 14 -3 21 16
34 14 9 25 20 25 24 0 11 76 84 92 88 7 2 20 10 28 17 9 8 43 17 75 21 34 3
72 14 87 25 33 23 48 24 48 3 0 -14 -3 -14 -15 -4 -10 9 -15 9 -15 1 0 -6 5
-11 11 -11 5 0 7 -6 3 -12 -5 -8 -1 -8 10 1 15 13 22 13 51 -3 18 -10 32 -25
31 -34 0 -9 10 -21 23 -28 25 -13 50 -48 51 -71 0 -8 -8 -5 -20 7 -11 11 -26
20 -32 20 -7 0 -28 18 -47 40 -19 22 -38 40 -43 40 -10 0 -49 -43 -43 -48 2
-3 12 5 22 17 l18 22 29 -27 c26 -25 27 -29 12 -39 -9 -7 -16 -21 -15 -31 0
-16 2 -15 10 5 8 19 14 22 37 16 42 -10 50 -22 49 -72 0 -34 5 -50 19 -61 11
-8 15 -16 8 -19 -8 -2 -9 -18 -3 -50 8 -38 6 -50 -8 -66 -17 -19 -17 -20 5 -8
20 11 22 17 16 69 -4 47 -3 53 7 37 25 -42 40 -46 63 -17 49 61 52 67 36 57
-8 -5 -21 -17 -29 -28 -12 -17 -15 -18 -23 -3 -6 10 -2 30 12 61 16 35 18 49
10 63 -10 15 -11 15 -6 0 2 -9 -4 -33 -15 -54 -21 -42 -24 -70 -9 -79 11 -7 4
-25 -9 -25 -4 0 -13 16 -20 35 -7 19 -18 35 -25 35 -20 0 -26 51 -9 77 22 33
1 91 -38 105 -37 13 -37 23 -2 22 38 -2 65 -14 81 -36 7 -10 17 -16 22 -13 20
12 60 -63 60 -112 0 -7 5 -13 11 -13 5 0 7 -5 3 -12 -4 -6 -3 -8 3 -5 6 4 13
-3 16 -15 4 -12 9 -19 13 -15 4 4 -2 20 -13 35 -11 15 -24 43 -28 62 -4 19
-13 48 -21 65 -7 16 -18 45 -24 63 -7 18 -19 32 -29 32 -13 0 -13 -2 -2 -9 8
-5 10 -14 6 -21 -5 -8 -4 -11 3 -6 6 3 14 -3 17 -15 10 -31 0 -34 -26 -8 -13
13 -30 24 -38 24 -7 0 -21 15 -31 32 -27 50 -40 63 -66 63 -24 0 -33 -23 -14
-35 6 -3 7 1 4 9 -4 10 -1 16 7 16 22 0 35 -12 53 -47 14 -28 14 -33 2 -33
-21 0 -103 52 -113 71 -4 9 -15 14 -23 11z"/>
<path d="M1250 3305 c13 -14 25 -23 27 -21 6 6 -30 46 -41 46 -5 0 1 -11 14
-25z"/>
<path d="M2398 3299 c-27 -20 -38 -49 -19 -49 5 0 0 -17 -10 -37 -10 -21 -19
-50 -19 -65 0 -15 -5 -30 -12 -34 -8 -5 -10 15 -6 77 4 61 3 75 -4 51 -14 -51
-6 -137 12 -137 10 0 17 14 21 40 3 22 11 52 17 67 11 27 44 44 62 33 5 -3 10
-1 10 6 0 7 -10 9 -30 6 -28 -6 -57 12 -32 21 18 6 58 41 47 41 -5 0 -22 -9
-37 -20z"/>
<path d="M2639 3283 c-6 -7 -21 -13 -33 -13 -11 0 -39 -9 -61 -20 -22 -11 -31
-17 -20 -14 11 4 40 13 65 19 25 7 53 16 63 20 14 6 16 4 10 -11 -4 -12 -3
-15 5 -10 17 10 15 43 -3 43 -8 0 -20 -6 -26 -14z"/>
<path d="M926 3224 c-21 -8 -42 -11 -46 -9 -5 3 -11 1 -15 -5 -3 -5 -16 -10
-28 -10 -19 0 -18 -2 8 -16 39 -20 49 -30 36 -38 -6 -4 -19 2 -31 14 -12 12
-20 15 -20 8 0 -7 14 -21 30 -30 27 -15 30 -15 30 -1 0 10 5 13 17 9 11 -5 23
1 34 15 22 29 57 27 107 -6 69 -45 131 -148 119 -195 -3 -11 -1 -20 4 -20 27
0 -1 95 -47 162 -55 79 -158 116 -193 69 l-16 -21 -28 22 -27 22 52 16 c47 14
59 14 103 2 28 -8 59 -23 71 -33 11 -11 24 -19 28 -19 23 0 -57 50 -99 63 -43
12 -56 12 -89 1z"/>
<path d="M2591 3226 c14 -15 20 -16 39 -6 13 7 38 10 57 7 20 -4 31 -2 28 4
-8 12 -62 12 -86 -2 -15 -8 -25 -7 -37 2 -16 12 -16 12 -1 -5z"/>
<path d="M1301 3183 c-1 -25 -16 -31 -24 -10 -3 6 -3 -5 -1 -27 1 -21 6 -41 9
-45 4 -3 6 1 5 9 -4 26 0 40 10 40 6 0 10 -8 11 -17 1 -10 5 -2 9 17 5 19 7
37 4 39 -2 2 -4 -2 -5 -10 0 -8 -4 -6 -9 6 -8 19 -9 19 -9 -2z"/>
<path d="M2468 3159 c-59 -50 -80 -104 -54 -140 18 -26 22 -9 5 19 -16 26 9
71 65 117 46 37 82 43 80 12 -2 -20 12 -23 19 -3 3 7 0 19 -6 25 -22 22 -62
11 -109 -30z"/>
<path d="M2625 3176 c-16 -7 -29 -17 -27 -22 2 -5 -7 -12 -20 -16 -20 -7 -19
-7 5 -4 26 3 28 1 24 -20 -2 -13 2 -29 9 -35 8 -6 11 -16 7 -23 -3 -6 3 -3 14
7 21 19 33 22 33 8 0 -14 -78 -63 -90 -56 -5 3 -7 12 -4 18 4 7 3 8 -1 4 -5
-4 -10 -14 -11 -22 -3 -17 41 -21 51 -5 3 5 12 7 19 4 17 -6 26 -60 13 -73
-17 -17 1 -43 23 -36 11 4 20 2 20 -4 0 -6 -7 -11 -15 -11 -8 0 -15 -2 -15 -5
0 -3 7 -22 15 -42 18 -44 18 -43 0 -43 -9 0 -20 12 -25 26 -6 14 -14 22 -20
19 -5 -3 -10 -8 -10 -11 0 -3 5 -2 12 2 7 5 9 0 6 -14 -3 -12 -1 -23 6 -25 8
-3 7 -8 -2 -19 -8 -10 -9 -19 -3 -22 5 -3 11 -1 13 6 4 10 14 9 46 -1 23 -8
45 -12 48 -9 2 3 -7 8 -21 12 -41 10 -29 32 26 44 28 7 58 12 67 12 15 0 15
-1 0 -16 -13 -13 -14 -22 -6 -46 9 -25 7 -32 -15 -52 -24 -22 -27 -23 -40 -7
-8 9 -17 23 -20 31 -4 12 -6 11 -6 -2 -1 -10 8 -27 19 -38 l20 -20 30 22 c32
24 35 33 20 72 -7 19 -6 27 4 33 18 11 36 67 26 84 -5 7 -6 17 -3 22 8 13 -17
27 -47 26 -21 -1 -19 -2 10 -11 19 -6 29 -13 23 -15 -10 -3 -9 -9 3 -21 15
-14 15 -17 -2 -29 -14 -10 -14 -13 -3 -14 14 -1 -95 -27 -118 -28 -7 -1 -13 3
-13 8 0 6 17 12 38 14 l37 4 -42 1 c-30 2 -45 7 -52 21 -9 16 -6 19 29 25 31
5 38 10 33 22 -5 15 -7 15 -15 0 -8 -14 -12 -15 -25 -4 -13 10 -4 16 63 38 51
16 78 31 80 41 3 22 -46 49 -71 38 -18 -7 -18 -8 4 -8 14 -1 33 -9 43 -18 18
-16 15 -18 -69 -48 -93 -33 -106 -34 -96 -9 4 10 14 14 29 11 13 -2 22 1 21 6
-1 6 12 16 30 22 18 6 35 14 39 18 9 9 -48 -8 -74 -22 -33 -17 -42 -13 -42 19
0 22 -5 30 -17 30 -9 0 4 13 29 29 44 28 67 51 52 51 -4 0 -16 -7 -26 -17 -10
-9 -18 -11 -18 -6 0 6 7 16 15 23 8 7 15 17 15 23 0 6 -7 1 -16 -11 -15 -22
-17 -22 -30 -5 -14 17 -14 17 -12 -2 2 -12 -3 -20 -12 -20 -23 0 -23 73 0 85
27 15 70 12 70 -4 0 -27 41 -66 68 -65 25 1 25 1 5 7 -33 10 -63 39 -63 62 0
16 -6 20 -32 20 -18 -1 -46 -7 -63 -14z m62 -392 c-3 -3 -12 -4 -19 -1 -8 3
-5 6 6 6 11 1 17 -2 13 -5z"/>
<path d="M1815 3170 c-16 -4 -58 -8 -93 -9 -41 -1 -92 -11 -150 -31 -96 -34
-146 -34 -157 0 -4 11 -10 20 -15 20 -5 0 -5 -11 1 -24 8 -16 23 -26 45 -31
20 -3 34 -12 34 -20 0 -8 8 -18 17 -24 12 -6 16 -20 15 -47 -3 -45 2 -43 11 3
5 26 2 37 -15 53 -13 12 -18 23 -12 28 23 21 176 61 249 65 44 3 91 10 105 15
29 12 9 13 -35 2z"/>
<path d="M2384 3115 c-14 -39 -18 -68 -13 -76 23 -37 5 -85 -56 -150 -16 -17
-3 -39 22 -39 21 0 73 29 73 41 0 6 -13 1 -29 -10 -30 -22 -61 -28 -61 -12 0
6 5 13 10 16 6 3 10 1 10 -5 0 -6 5 -8 11 -4 8 4 7 9 -2 14 -9 6 -5 16 15 41
24 28 27 39 22 73 -9 64 -9 72 12 114 11 22 17 45 13 50 -3 5 -16 -18 -27 -53z"/>
<path d="M2232 3149 c3 -8 -2 -19 -10 -25 -13 -10 -13 -15 1 -44 24 -47 11
-55 -25 -15 -36 41 -54 44 -62 10 -3 -13 -15 -29 -26 -35 -33 -18 -21 -78 22
-108 10 -7 18 -19 18 -27 0 -12 59 -40 67 -31 2 2 -10 8 -26 14 -17 6 -31 15
-31 19 0 5 -13 23 -30 41 -34 38 -38 67 -11 81 10 6 22 22 25 36 6 22 26 36
26 18 0 -5 14 -23 32 -42 28 -30 32 -31 41 -16 7 12 5 28 -7 52 -14 30 -14 34
-1 39 18 7 20 30 4 40 -7 4 -10 1 -7 -7z"/>
<path d="M2071 3129 c-17 -14 -28 -16 -41 -9 -27 14 -34 12 -20 -5 7 -8 16
-12 21 -9 5 3 9 -3 9 -13 1 -17 1 -17 11 0 6 10 19 16 32 14 12 -2 17 -2 10 0
-7 2 -9 11 -6 19 4 11 8 12 19 3 8 -7 17 -9 20 -6 3 3 -3 10 -13 15 -14 8 -24
5 -42 -9z"/>
<path d="M843 3127 c23 -19 22 -41 -2 -34 -14 3 -17 0 -14 -12 5 -19 40 -44
46 -33 11 18 -7 73 -27 83 -19 9 -19 9 -3 -4z m22 -57 c3 -5 2 -10 -4 -10 -5
0 -13 5 -16 10 -3 6 -2 10 4 10 5 0 13 -4 16 -10z"/>
<path d="M1070 3090 l25 -20 -27 0 c-15 0 -29 -4 -33 -9 -3 -6 8 -8 28 -4 23
3 37 0 46 -11 11 -13 11 -17 -3 -22 -10 -4 -15 -17 -15 -33 2 -23 2 -24 6 -3
6 29 15 28 35 -5 12 -19 18 -23 18 -12 0 9 -7 22 -15 29 -8 7 -14 18 -13 24 3
12 -30 66 -47 78 -23 17 -28 6 -5 -12z"/>
<path d="M2504 3072 c-45 -45 -138 -171 -131 -179 3 -2 27 25 54 62 26 37 65
87 87 111 48 54 43 57 -10 6z"/>
<path d="M2263 3075 c3 -11 8 -33 12 -50 11 -47 24 -59 46 -39 20 18 23 55 9
89 -5 14 -7 5 -6 -30 1 -65 -23 -69 -41 -6 -12 43 -31 76 -20 36z"/>
<path d="M2763 3078 c-21 -27 -22 -36 -8 -41 9 -4 12 -1 8 9 -3 8 0 21 7 29 7
8 10 15 7 15 -2 0 -9 -6 -14 -12z"/>
<path d="M956 3057 c-41 -38 -30 -67 26 -67 32 0 100 -46 141 -94 34 -41 48
-77 30 -76 -17 1 -103 89 -93 95 5 3 10 11 10 16 0 5 -11 2 -25 -7 -13 -8 -32
-13 -42 -10 -10 3 -25 1 -33 -4 -10 -6 -11 -10 -2 -10 6 0 11 -3 10 -7 -3 -18
23 -63 43 -74 22 -11 22 -12 4 -25 -16 -12 -16 -14 -3 -14 30 0 29 31 -2 60
-16 15 -30 37 -30 48 0 29 47 15 100 -30 41 -35 42 -38 19 -39 -19 -1 -20 -2
-5 -6 10 -3 28 -15 40 -27 11 -12 15 -15 9 -6 -17 22 -16 30 2 30 26 0 16 39
-22 91 -40 53 -107 99 -145 99 -13 0 -30 4 -38 10 -12 7 -9 13 14 35 16 14 26
28 23 31 -3 3 -17 -6 -31 -19z"/>
<path d="M2560 3065 c-7 -8 -9 -15 -6 -15 4 0 14 7 22 15 9 8 11 15 6 15 -5 0
-15 -7 -22 -15z"/>
<path d="M1429 3041 c-15 -16 -30 -45 -34 -69 -4 -23 -14 -47 -23 -52 -15 -10
-15 -10 3 -8 14 2 22 15 28 48 4 25 16 52 26 60 14 12 36 51 28 50 -1 -1 -14
-13 -28 -29z"/>
<path d="M816 3025 c-9 -14 -24 -25 -34 -25 -15 0 -15 -2 -2 -10 13 -9 13 -12
-2 -21 -10 -5 -18 -16 -18 -24 0 -7 -7 -20 -15 -28 -13 -13 -11 -17 11 -32 14
-9 28 -14 31 -12 2 3 -5 10 -16 16 -12 7 -18 17 -15 26 8 20 51 19 57 0 4 -11
4 -10 3 2 -1 10 -11 19 -24 21 -24 4 -29 17 -9 25 14 5 57 -26 57 -42 0 -13
44 -25 62 -18 7 3 4 6 -7 6 -18 1 -20 7 -18 63 1 46 -1 57 -7 41 -5 -13 -16
-23 -25 -23 -8 0 -15 -4 -15 -9 0 -5 9 -7 20 -4 22 6 28 -12 8 -20 -10 -4 -10
-6 0 -6 11 -1 18 -31 7 -31 -3 0 -18 14 -34 32 l-29 32 21 28 c11 15 18 30 15
33 -3 3 -13 -6 -22 -20z"/>
<path d="M2681 3036 c-9 -11 -9 -16 0 -22 8 -5 9 -3 4 6 -6 9 1 11 26 6 19 -3
27 -3 19 0 -8 4 -20 11 -26 15 -7 6 -16 4 -23 -5z"/>
<path d="M2536 3011 c-3 -4 -16 -7 -28 -6 -13 1 -15 0 -5 -2 21 -5 22 -17 1
-33 -8 -8 -20 -23 -25 -34 -8 -17 -6 -16 11 4 34 42 62 80 56 80 -3 0 -7 -4
-10 -9z"/>
<path d="M2620 2981 c0 -4 -21 -18 -47 -29 -75 -33 -141 -75 -159 -100 -17
-25 -12 -98 6 -87 5 3 5 16 -2 29 -19 43 29 86 170 151 30 14 51 29 47 35 -8
12 -15 13 -15 1z"/>
<path d="M2730 2960 c-8 -5 -10 -10 -5 -10 6 0 17 5 25 10 8 5 11 10 5 10 -5
0 -17 -5 -25 -10z"/>
<path d="M1852 2938 c-28 -18 -35 -19 -43 -7 -5 8 -9 9 -9 4 0 -30 23 -33 61
-9 21 13 47 24 58 24 25 0 54 -71 46 -114 -5 -29 -5 -30 6 -6 12 29 5 74 -16
107 -19 29 -58 29 -103 1z"/>
<path d="M1160 2908 c11 -10 20 -24 20 -30 0 -6 2 -9 5 -6 10 9 -16 55 -31 55
-10 0 -9 -6 6 -19z"/>
<path d="M1334 2916 c-4 -10 -15 -16 -26 -14 -14 2 -23 -5 -29 -19 -5 -14 -5
-23 1 -23 6 0 10 7 10 15 0 9 9 15 24 15 22 0 43 26 31 38 -2 3 -7 -3 -11 -12z"/>
<path d="M1840 2898 c0 -5 9 -12 20 -15 14 -4 20 -14 20 -35 0 -24 6 -32 29
-41 16 -6 34 -20 40 -31 9 -20 10 -19 7 4 -2 15 -10 26 -22 29 -30 5 -44 21
-44 50 0 18 -8 30 -25 38 -16 7 -25 7 -25 1z"/>
<path d="M1385 2823 c-16 -66 -17 -85 -6 -136 7 -33 9 -63 4 -68 -16 -16 -62
6 -85 40 -13 19 -30 37 -38 39 -11 3 -9 -2 6 -19 11 -13 27 -35 36 -49 11 -18
25 -26 51 -27 45 -3 51 12 35 87 -10 48 -9 68 6 129 10 40 16 75 13 77 -2 2
-12 -30 -22 -73z"/>
<path d="M814 2874 c-19 -15 -19 -16 1 -9 46 16 57 16 96 1 23 -9 44 -15 47
-12 3 3 -4 8 -14 12 -10 3 -29 10 -42 15 -34 13 -66 11 -88 -7z"/>
<path d="M2610 2869 c-27 -14 -44 -16 -78 -10 -23 5 -41 6 -38 4 2 -2 -10 -19
-28 -36 -23 -23 -24 -25 -3 -7 20 18 40 25 70 26 59 1 104 13 111 30 3 8 4 13
3 13 -1 -1 -18 -10 -37 -20z"/>
<path d="M740 2842 c-27 -3 -31 -6 -16 -11 11 -4 37 -3 58 3 30 8 44 7 66 -5
20 -12 40 -14 82 -9 l55 7 -62 2 c-34 0 -65 6 -68 11 -6 10 -49 11 -115 2z"/>
<path d="M1257 2827 c-19 -19 -38 -69 -36 -97 0 -8 6 4 14 28 7 24 21 49 31
56 9 7 15 17 13 22 -2 6 -12 1 -22 -9z"/>
<path d="M821 2803 c0 -13 4 -23 9 -23 6 0 10 -4 10 -10 0 -5 -6 -10 -14 -10
-8 0 -24 -9 -37 -20 l-24 -20 33 16 c41 20 54 11 15 -10 -15 -8 -23 -15 -18
-15 6 -1 17 3 24 8 11 7 21 3 36 -14 12 -12 36 -26 53 -30 40 -8 40 -17 1 -32
-17 -7 -29 -18 -27 -26 2 -7 -10 -25 -26 -38 -25 -22 -27 -28 -17 -47 6 -12
16 -22 21 -22 6 0 5 9 -2 21 -12 18 -10 23 16 44 16 12 25 28 22 34 -9 14 38
33 67 26 12 -3 45 2 72 10 44 13 45 14 10 8 -60 -9 -80 -9 -83 2 -4 13 -42 34
-62 35 -21 0 -50 36 -50 61 0 16 4 20 18 15 14 -5 14 -4 -2 9 -11 8 -23 15
-27 15 -4 0 -10 8 -12 18 -4 13 -5 11 -6 -5z"/>
<path d="M768 2787 c-30 -12 -32 -20 -17 -52 8 -17 8 -15 4 8 -4 18 -1 27 7
27 7 0 22 7 32 15 23 17 13 18 -26 2z"/>
<path d="M2291 2776 c-12 -14 -12 -16 2 -11 19 8 31 -10 14 -23 -19 -15 -66
-20 -70 -8 -2 6 -8 7 -13 3 -5 -4 -3 -11 3 -15 11 -7 11 -22 -2 -87 -5 -22 -4
-26 4 -15 5 8 7 18 5 22 -3 4 9 8 26 8 19 0 41 9 58 25 15 14 36 26 47 26 17
1 18 2 2 6 -10 3 -33 -7 -52 -21 -40 -30 -72 -34 -70 -8 2 27 15 43 34 40 9
-2 28 6 43 17 14 11 34 25 43 30 16 10 16 11 -3 11 -11 0 -18 -4 -16 -8 10
-15 -19 -8 -30 8 -11 14 -13 14 -25 0z"/>
<path d="M1030 2769 l-35 -6 35 -3 c19 -1 39 -2 43 -1 5 1 26 -3 48 -9 28 -8
43 -19 49 -36 5 -13 14 -24 19 -24 5 0 3 13 -5 30 -15 28 -21 32 -109 53 -5 2
-26 0 -45 -4z"/>
<path d="M2425 2750 c-4 -6 -2 -17 4 -24 6 -7 8 -15 5 -19 -3 -3 3 -3 15 0 29
7 26 -9 -5 -41 -39 -38 -49 -34 -45 19 1 18 0 17 -12 -4 -9 -15 -17 -20 -21
-12 -10 16 -26 14 -20 -3 3 -8 14 -13 25 -11 11 2 19 -2 19 -10 0 -38 50 -13
93 48 15 21 122 41 182 33 37 -5 38 -5 10 4 -31 11 -143 4 -181 -11 -24 -8
-69 16 -59 32 4 5 4 9 1 9 -3 0 -8 -5 -11 -10z"/>
<path d="M880 2740 c0 -6 5 -10 11 -10 5 0 7 -5 3 -12 -4 -7 -3 -8 4 -4 16 10
15 23 -3 30 -8 3 -15 1 -15 -4z"/>
<path d="M2057 2734 c3 -8 9 -14 13 -14 4 0 24 -11 45 -25 20 -14 35 -20 33
-13 -3 7 -25 25 -51 40 -29 17 -44 22 -40 12z"/>
<path d="M985 2724 c-25 -12 -26 -13 -6 -10 33 7 103 -19 156 -56 25 -18 47
-29 50 -26 6 6 -66 57 -110 76 -28 13 -28 15 -10 22 16 7 13 9 -15 9 -19 0
-48 -6 -65 -15z m52 0 c-3 -3 -12 -4 -19 -1 -8 3 -5 6 6 6 11 1 17 -2 13 -5z"/>
<path d="M1970 2735 c0 -22 19 -38 39 -32 37 9 51 -37 21 -68 -43 -44 -82 -95
-73 -95 11 0 53 43 53 54 0 5 11 19 25 32 32 30 32 64 -1 95 -18 17 -23 19
-18 6 8 -23 -22 -23 -35 1 -6 9 -10 13 -11 7z"/>
<path d="M1095 2720 c3 -6 12 -10 19 -10 7 0 29 -13 47 -30 19 -16 37 -30 42
-30 11 0 9 -48 -3 -55 -5 -3 -10 -15 -10 -26 0 -22 -6 -23 -40 -4 -14 8 -40
14 -59 15 l-34 0 34 23 c30 20 37 21 59 10 14 -7 30 -13 35 -13 6 1 -7 9 -28
20 -39 19 -39 19 -70 -3 -55 -38 -58 -61 -8 -51 17 4 41 -1 59 -10 38 -20 62
-20 62 -2 0 7 6 26 14 41 18 35 14 45 -34 84 -40 32 -96 59 -85 41z"/>
<path d="M773 2688 l-22 -11 22 -17 c18 -15 19 -20 8 -33 -7 -9 -11 -24 -8
-34 4 -16 5 -16 6 2 3 37 28 59 69 58 33 -1 35 0 14 10 -13 6 -21 15 -19 22 6
14 -42 17 -70 3z m57 -12 c0 -19 -33 -26 -48 -10 -9 10 -9 14 1 17 24 10 47 7
47 -7z"/>
<path d="M2679 2693 c-1 -5 -2 -17 -3 -28 -1 -18 -9 -20 -68 -23 -67 -3 -68
-3 -67 -30 2 -24 2 -24 6 -4 4 20 10 22 62 22 31 0 62 5 67 10 7 7 19 -7 37
-44 20 -39 33 -55 52 -58 20 -4 23 -3 14 8 -14 17 2 19 18 3 8 -8 14 -6 22 9
9 16 7 21 -10 25 -18 5 -19 8 -8 20 18 19 38 11 45 -20 7 -27 -21 -67 -40 -56
-6 3 -8 3 -4 -1 11 -13 -40 -117 -87 -178 -36 -45 -48 -71 -60 -128 -19 -88
-19 -83 5 -75 11 3 25 3 31 -1 7 -4 -1 -11 -22 -18 -26 -9 -35 -18 -40 -43 -3
-18 -2 -30 2 -27 5 3 23 -9 41 -26 33 -33 94 -70 115 -70 8 0 22 -5 32 -12 27
-16 66 2 121 57 47 47 163 141 183 148 7 2 9 7 6 11 -9 9 -116 -69 -179 -130
-80 -78 -97 -89 -123 -76 -12 6 -38 16 -58 22 -20 6 -53 26 -72 45 -20 19 -41
35 -47 35 -5 0 -10 9 -10 21 0 23 52 49 98 49 23 0 32 -6 42 -30 7 -16 19 -30
26 -30 8 0 14 -5 14 -11 0 -5 5 -7 10 -4 6 4 17 1 25 -5 10 -8 15 -9 15 -2 0
6 -16 16 -35 23 -21 8 -38 23 -45 40 -11 27 -29 33 -118 42 -12 1 -20 7 -18
13 2 6 8 33 11 58 5 33 19 62 47 97 21 27 54 80 73 117 18 37 45 78 58 90 22
21 24 28 15 53 -13 39 -49 61 -99 64 -32 2 -37 0 -28 -11 7 -9 17 -11 28 -4
20 10 47 -3 37 -19 -4 -6 -14 -11 -22 -11 -10 0 -14 -7 -12 -20 3 -22 -14 -28
-23 -8 -4 7 -19 36 -33 65 l-26 52 27 4 28 4 -27 2 c-16 0 -29 -2 -29 -6z
m119 -115 c19 -19 14 -29 -8 -16 -20 13 -27 28 -12 28 4 0 13 -5 20 -12z"/>
<path d="M1015 2675 c-24 -11 -26 -14 -9 -15 11 0 29 7 40 15 24 18 9 18 -31
0z"/>
<path d="M2443 2618 c-13 -6 -23 -15 -23 -21 0 -5 -7 -4 -15 3 -10 9 -15 9
-15 1 0 -6 5 -11 11 -11 5 0 8 -4 5 -8 -3 -5 1 -9 9 -9 8 0 12 4 10 8 -3 3 1
12 9 18 10 9 17 6 30 -14 9 -14 22 -25 29 -25 8 0 24 -11 37 -25 13 -14 33
-25 45 -25 22 0 60 -32 50 -42 -3 -3 6 -3 20 0 l26 5 -23 13 c-13 7 -34 18
-48 25 -27 12 -38 19 -85 49 -46 29 -57 41 -51 56 3 8 4 14 3 13 -1 0 -12 -5
-24 -11z"/>
<path d="M675 2611 c-4 -7 -13 -10 -21 -7 -8 3 -24 1 -36 -4 -18 -7 -13 -8 24
-7 41 2 48 0 59 -23 7 -14 12 -28 11 -31 -1 -4 9 -4 21 -1 22 5 22 5 -2 -21
-22 -24 -23 -30 -14 -69 6 -25 11 -34 12 -20 0 12 19 38 41 58 31 28 39 41 34
59 -5 19 0 27 23 39 33 18 25 21 -11 5 -25 -12 -41 -46 -25 -51 6 -2 -8 -21
-31 -43 -41 -40 -57 -30 -17 13 21 23 21 24 3 37 -10 8 -24 16 -30 19 -7 3 -6
8 4 15 13 9 13 11 -2 11 -9 0 -21 7 -26 16 -7 12 -11 13 -17 5z"/>
<path d="M957 2570 c-52 -39 -67 -57 -67 -76 0 -19 -8 -28 -35 -40 -19 -8 -35
-20 -35 -28 0 -7 -10 -21 -22 -30 l-23 -17 23 11 c20 10 22 8 22 -20 0 -31 22
-42 36 -18 5 8 2 9 -9 5 -13 -5 -17 -1 -17 18 0 14 5 25 12 25 6 0 20 7 30 17
16 14 18 15 18 0 0 -24 13 -28 43 -12 33 17 44 3 23 -30 -13 -20 -14 -23 -1
-19 8 3 17 14 20 23 3 10 23 29 45 44 36 23 40 24 40 8 0 -10 11 -26 25 -35
36 -24 44 -19 13 7 -25 20 -32 36 -29 63 0 5 15 20 32 33 34 25 61 15 52 -19
-7 -25 -19 -25 -32 -2 -10 16 -10 16 -11 -1 0 -10 7 -20 15 -23 10 -4 13 -17
10 -46 -5 -51 -18 -66 -41 -47 -15 12 -17 12 -12 -1 7 -22 45 -24 56 -3 5 10
10 34 10 54 1 20 6 48 11 62 8 20 7 30 -5 42 -24 24 -36 19 -102 -45 -35 -33
-67 -60 -72 -60 -23 0 -21 25 4 47 18 15 22 23 12 23 -8 0 -23 -14 -33 -30
-15 -26 -48 -48 -58 -38 -4 4 -8 38 -6 70 1 21 15 38 64 74 34 26 64 49 66 51
2 2 2 5 -1 8 -3 3 -35 -18 -71 -45z m-86 -140 c-25 -22 -41 -26 -41 -10 0 11
30 29 50 29 10 0 8 -6 -9 -19z"/>
<path d="M2344 2595 c-9 -14 -14 -28 -12 -31 11 -10 58 -14 58 -4 0 5 -12 10
-27 10 l-28 1 23 18 c24 21 28 31 12 31 -5 0 -17 -11 -26 -25z"/>
<path d="M1237 2593 c-3 -10 -8 -31 -11 -46 -4 -15 -10 -26 -14 -23 -8 4 -9
-9 -12 -121 -2 -54 -6 -73 -16 -73 -8 0 -14 5 -14 10 0 6 -4 10 -10 10 -5 0
-7 -7 -4 -15 4 -8 13 -15 22 -15 13 0 14 -12 8 -78 -4 -56 -2 -94 10 -137 9
-33 16 -88 16 -122 0 -49 5 -70 23 -97 27 -40 34 -91 16 -124 -10 -18 -9 -27
3 -50 8 -15 17 -44 21 -64 3 -21 13 -44 22 -53 23 -24 75 -16 89 14 7 13 18
28 26 32 10 7 10 9 -2 9 -8 0 -23 -14 -32 -30 -31 -55 -83 -32 -97 42 -4 26
-14 54 -21 62 -9 12 -7 20 14 41 30 30 32 37 11 29 -9 -4 -15 0 -15 10 0 22
11 20 46 -6 23 -18 28 -29 26 -53 -2 -16 -9 -33 -15 -37 -8 -5 -7 -8 3 -8 13
0 13 -1 0 -10 -12 -8 -10 -10 10 -10 l25 0 -28 -25 c-33 -32 -35 -41 -3 -20
30 20 39 40 22 54 -16 13 -8 81 9 81 8 0 20 -7 29 -15 8 -8 17 -11 20 -6 4 5
-20 22 -51 38 -102 50 -103 51 -85 81 9 13 -17 105 -33 120 -5 4 -5 -2 -1 -13
4 -11 10 -32 13 -48 3 -15 9 -30 14 -33 4 -2 6 -11 2 -19 -4 -12 -10 -9 -26
11 -14 19 -21 44 -23 91 -2 36 -10 95 -19 130 -13 53 -14 79 -6 158 6 52 11
99 11 105 0 5 6 10 14 10 8 0 16 7 20 15 3 8 1 15 -4 15 -6 0 -10 -4 -10 -10
0 -5 -6 -10 -14 -10 -17 0 -14 44 9 120 19 66 26 100 21 100 -3 0 -7 -8 -9
-17z"/>
<path d="M1400 2595 c0 -4 8 -20 17 -36 17 -29 17 -31 -5 -71 l-24 -40 26 -50
c15 -28 25 -52 23 -54 -2 -2 -20 2 -41 8 -34 11 -40 10 -53 -7 -8 -11 -12 -30
-10 -42 2 -13 0 -23 -4 -23 -5 0 -9 -7 -9 -15 0 -8 5 -15 11 -15 5 0 8 4 5 8
-3 4 11 16 30 27 32 17 35 17 53 1 43 -39 33 -126 -14 -126 -27 0 -45 18 -45
47 0 19 5 23 30 23 23 0 30 4 30 20 0 15 -6 20 -27 19 -24 -2 -25 -2 -5 -6 30
-6 28 -20 -3 -20 -14 0 -25 5 -25 11 0 6 -4 5 -9 -3 -10 -16 3 -79 21 -97 21
-20 65 -6 78 26 14 33 5 87 -18 113 -17 20 -53 22 -70 5 -18 -18 -27 -1 -14
28 10 20 17 24 35 18 53 -16 67 -24 67 -39 0 -8 5 -15 11 -15 5 0 7 5 4 10 -4
6 -9 22 -11 37 -3 14 -13 38 -23 52 -28 40 -34 66 -16 81 26 22 30 76 6 106
-12 15 -21 23 -21 19z"/>
<path d="M2195 2591 c-3 -6 -15 -11 -26 -11 -23 0 -23 -3 -5 -55 14 -41 11
-68 -7 -62 -7 2 -14 14 -17 28 -5 19 -13 24 -36 24 -16 0 -34 3 -40 7 -7 4
-17 1 -23 -6 -9 -10 -9 -16 -1 -21 8 -5 8 -11 -1 -21 -13 -16 -41 -18 -55 -4
-16 16 -43 1 -60 -31 -16 -32 -34 -38 -35 -11 0 12 -3 10 -10 -8 -12 -28 -6
-97 9 -112 6 -6 12 -3 16 7 3 9 2 14 -3 11 -11 -7 -21 18 -21 54 0 23 4 27 20
23 14 -4 22 1 29 19 12 31 37 53 46 38 9 -15 61 -12 74 4 6 7 9 21 5 30 -3 9
-1 16 5 16 6 0 11 -5 11 -10 0 -6 8 -5 20 2 26 16 41 1 45 -44 2 -18 3 -39 4
-45 1 -7 6 -13 11 -13 7 0 7 6 0 19 -14 28 -13 34 9 28 26 -6 32 29 15 80 -8
21 -14 39 -14 41 0 1 9 2 19 2 20 0 37 17 28 26 -3 3 -8 1 -12 -5z"/>
<path d="M1315 2581 c3 -5 0 -21 -6 -35 -9 -19 -9 -29 0 -39 11 -14 10 -133
-3 -192 -6 -29 -6 -29 5 -5 7 14 11 29 10 34 -1 4 3 13 8 20 6 7 6 17 1 26 -5
8 -6 35 -3 62 4 31 1 53 -7 63 -10 12 -9 19 3 39 14 21 15 25 1 30 -8 3 -12 2
-9 -3z"/>
<path d="M2620 2584 c0 -5 10 -15 21 -23 18 -11 19 -15 8 -22 -12 -8 -11 -9 2
-7 17 3 89 -32 89 -44 0 -5 -11 -8 -23 -8 -32 0 -65 -36 -49 -52 9 -9 12 -7
12 10 0 23 38 40 60 27 17 -10 2 -23 -23 -19 -22 5 -22 5 1 -6 26 -11 25 -15
-30 -81 -37 -44 -55 -88 -23 -55 8 8 15 19 15 24 0 5 10 17 21 28 19 17 65
100 82 149 7 20 7 20 -8 1 -8 -11 -15 -23 -15 -28 0 -4 -4 -8 -9 -8 -5 0 -8 7
-7 16 0 9 -14 25 -34 36 -19 11 -39 25 -45 32 -18 21 -45 39 -45 30z"/>
<path d="M2440 2573 c0 -5 -12 -15 -26 -21 -14 -7 -23 -16 -20 -21 3 -5 -3
-20 -14 -34 -11 -14 -20 -35 -20 -46 0 -12 -7 -24 -15 -27 -20 -8 -19 -30 1
-38 25 -10 29 -7 9 7 -17 13 -16 15 14 30 30 15 31 15 46 -11 8 -15 14 -22 15
-16 0 5 -6 19 -14 29 -17 24 -9 53 23 82 33 29 43 29 40 1 -3 -32 12 -107 22
-114 5 -3 9 -20 9 -37 0 -18 5 -39 10 -47 7 -10 8 1 4 35 -4 28 -11 56 -17 63
-8 10 -7 16 4 23 9 5 9 9 2 9 -15 0 -28 37 -24 69 4 35 -17 42 -46 15 -14 -13
-30 -24 -34 -24 -17 0 -9 21 18 46 14 13 23 27 20 31 -4 3 -7 2 -7 -4z m-54
-131 c-15 -15 -16 -15 -16 4 0 28 24 52 28 28 2 -9 -3 -24 -12 -32z"/>
<path d="M2250 2550 c0 -5 7 -7 15 -4 8 4 17 -1 21 -9 4 -10 16 -14 37 -12 18
2 37 4 42 4 6 1 3 5 -5 11 -8 5 -19 5 -25 0 -7 -6 -22 -4 -39 5 -33 17 -46 19
-46 5z"/>
<path d="M3100 2495 c0 -8 9 -15 20 -15 11 0 20 7 20 15 0 8 -9 15 -20 15 -11
0 -20 -7 -20 -15z"/>
<path d="M3057 2464 c-14 -14 -7 -44 11 -45 10 0 12 -3 5 -6 -19 -7 -15 -33 5
-33 23 0 25 83 2 88 -9 1 -19 0 -23 -4z m24 -27 c-13 -13 -26 -3 -16 12 3 6
11 8 17 5 6 -4 6 -10 -1 -17z"/>
<path d="M3147 2463 c-14 -13 -6 -33 13 -33 13 0 20 7 20 20 0 19 -20 27 -33
13z m23 -13 c0 -5 -5 -10 -11 -10 -5 0 -7 5 -4 10 3 6 8 10 11 10 2 0 4 -4 4
-10z"/>
<path d="M2563 2437 c-27 -12 -33 -42 -18 -93 l12 -39 -4 55 c-4 46 -2 57 14
66 16 10 29 8 66 -10 31 -15 50 -20 59 -13 10 7 9 8 -3 4 -9 -3 -20 -2 -25 3
-22 21 -80 37 -101 27z"/>
<path d="M2248 2415 c-20 -26 -23 -52 -8 -75 5 -9 5 -19 -1 -26 -6 -7 -6 -21
0 -35 5 -13 10 -28 11 -34 1 -5 7 -21 12 -35 5 -14 7 -38 3 -55 -3 -16 -7 -39
-9 -51 -1 -11 -6 -26 -10 -33 -5 -8 -3 -17 5 -23 10 -7 3 -8 -22 -5 -20 3 -42
1 -50 -5 -10 -7 -8 -8 8 -3 17 4 21 2 19 -12 -2 -10 -1 -12 1 -5 3 9 15 12 33
10 29 -4 29 -4 24 43 -2 27 0 50 6 54 15 9 12 67 -5 109 -9 20 -15 51 -15 69
0 18 -2 47 -6 65 -4 20 -2 32 5 32 5 0 15 9 21 20 15 28 -1 24 -22 -5z"/>
<path d="M1990 2415 c-19 -7 -43 -24 -54 -38 -16 -22 -17 -30 -8 -49 l12 -23
-6 23 c-7 28 17 58 63 77 43 18 65 10 102 -35 38 -47 27 -58 -29 -29 -39 21
-44 21 -75 6 -27 -13 -36 -26 -47 -64 -10 -36 -19 -49 -35 -51 -20 -3 -21 -1
-13 29 7 23 7 30 -1 22 -6 -6 -10 -26 -9 -44 4 -94 6 -109 13 -109 4 0 7 -8 7
-19 0 -10 7 -24 15 -31 13 -11 13 -9 1 21 -16 41 -27 121 -16 114 5 -3 12 0
16 6 4 7 14 1 29 -17 44 -55 145 -20 145 51 0 36 29 48 51 21 17 -20 17 -22
-18 -58 -20 -20 -40 -35 -45 -32 -4 3 -5 -2 -2 -10 4 -11 -3 -17 -23 -21 -48
-11 -103 -37 -97 -47 4 -6 11 -5 17 1 14 14 28 14 25 -1 -2 -6 12 -14 29 -18
18 -4 30 -3 27 1 -3 5 -15 9 -28 9 -36 0 -28 29 10 36 22 4 50 24 85 61 52 55
52 55 72 35 20 -20 20 -20 -3 -52 -18 -26 -21 -38 -14 -58 5 -14 16 -28 24
-30 12 -4 11 -1 -2 15 -22 25 -22 32 2 63 28 36 25 46 -25 95 -40 38 -49 43
-70 35 -19 -7 -25 -17 -25 -38 0 -67 -102 -104 -129 -46 -16 36 2 97 36 119
26 17 28 17 70 -6 40 -22 44 -22 59 -7 16 15 15 19 -11 50 -43 52 -72 62 -125
43z"/>
<path d="M3224 2361 c-59 -49 -126 -121 -112 -121 2 0 33 28 68 63 87 83 130
114 130 92 0 -9 -5 -26 -11 -37 -9 -17 -13 -18 -21 -7 -8 11 -9 11 -5 -2 3
-10 -7 -28 -26 -46 -48 -44 -63 -54 -104 -69 -21 -7 -31 -13 -22 -14 72 -1
199 113 199 180 0 32 -20 24 -96 -39z"/>
<path d="M2280 2404 c-1 -30 26 -64 53 -65 15 -1 33 -2 39 -3 7 -1 15 16 19
36 3 20 2 35 -3 32 -4 -3 -8 -15 -8 -28 0 -12 -2 -25 -5 -28 -9 -9 -65 4 -65
16 0 15 -29 55 -30 40z"/>
<path d="M1042 2387 c-6 -7 -20 -33 -32 -57 -11 -25 -18 -34 -15 -20 5 21 4
22 -5 8 -7 -12 -8 -24 -1 -35 8 -16 12 -13 25 19 9 21 16 42 16 47 0 5 9 16
21 24 11 8 16 18 11 21 -5 3 -15 0 -20 -7z"/>
<path d="M1840 2380 c0 -11 4 -20 8 -20 4 0 8 9 8 20 0 11 -4 20 -8 20 -4 0
-8 -9 -8 -20z"/>
<path d="M3150 2380 c0 -11 6 -20 14 -20 7 0 16 9 19 20 4 15 0 20 -14 20 -12
0 -19 -7 -19 -20z"/>
<path d="M2939 2353 c-31 -79 -36 -213 -8 -213 6 0 6 7 -1 19 -14 28 -12 79 6
142 27 92 41 89 51 -10 4 -49 1 -68 -17 -106 -12 -25 -20 -48 -18 -51 10 -10
48 96 48 133 0 93 -38 146 -61 86z"/>
<path d="M984 2355 c-4 -8 -9 -13 -13 -11 -3 2 -15 0 -26 -5 -17 -6 -15 -7 8
-6 27 1 73 37 48 37 -6 0 -14 -7 -17 -15z"/>
<path d="M1533 2348 c-22 -21 -23 -21 -43 -3 -25 22 -26 15 -2 -11 9 -10 28
-20 42 -22 19 -2 22 0 10 8 -13 8 -8 14 10 12 3 0 7 8 7 19 2 24 2 24 -24 -3z"/>
<path d="M2442 2347 c-15 -18 -5 -144 14 -174 15 -23 19 -85 7 -97 -4 -3 -8
-13 -9 -20 -1 -7 -5 -24 -9 -37 -5 -18 -4 -21 4 -13 6 5 16 37 22 70 6 32 15
67 20 76 11 23 23 115 13 105 -4 -4 -9 -24 -11 -44 -4 -45 -18 -62 -31 -37
-14 28 -24 164 -12 164 6 0 10 -26 10 -57 0 -32 4 -63 8 -70 4 -7 6 20 4 60
-4 77 -12 96 -30 74z"/>
<path d="M3327 2344 c-15 -15 -7 -45 11 -42 9 2 17 12 17 22 0 20 -16 31 -28
20z m18 -13 c3 -5 1 -12 -5 -16 -5 -3 -10 1 -10 9 0 18 6 21 15 7z"/>
<path d="M3403 2343 c-26 -10 -13 -33 18 -33 24 0 30 4 27 17 -3 18 -24 26
-45 16z m32 -13 c3 -5 -3 -10 -15 -10 -12 0 -18 5 -15 10 3 6 10 10 15 10 5 0
12 -4 15 -10z"/>
<path d="M3093 2293 c-54 -70 -116 -168 -94 -149 12 11 31 35 43 55 12 19 24
29 26 23 2 -7 8 -12 14 -12 7 0 6 5 -1 14 -13 15 -4 49 10 40 5 -3 8 0 7 8 -2
7 3 12 10 11 6 -2 11 2 10 9 -2 6 8 17 22 25 24 12 24 13 3 13 -13 0 -32 -14
-50 -37z"/>
<path d="M3224 2314 c-18 -14 -18 -15 4 -4 12 6 22 13 22 15 0 8 -5 6 -26 -11z"/>
<path d="M1845 2298 c-9 -28 -16 -68 -9 -51 3 7 4 15 2 17 -2 3 6 12 17 20 15
11 17 18 9 26 -8 8 -13 5 -19 -12z"/>
<path d="M1990 2306 c-6 -6 -10 -16 -10 -23 0 -17 77 -14 84 3 11 28 -50 44
-74 20z m57 -12 c2 -5 -11 -11 -29 -12 -31 -2 -32 -1 -13 13 20 16 37 15 42
-1z"/>
<path d="M2544 2292 c-14 -9 -29 -66 -14 -57 5 3 10 15 10 25 0 10 5 22 11 25
7 5 8 -7 4 -37 -6 -41 -5 -45 19 -56 14 -6 26 -7 26 -2 0 5 -9 12 -20 15 -21
7 -26 30 -11 53 14 22 61 -28 55 -59 l-5 -24 11 23 c11 26 -12 72 -36 72 -8 0
-17 7 -20 15 -7 17 -14 18 -30 7z"/>
<path d="M1639 2281 c-14 -3 -44 -21 -65 -40 l-39 -35 -1 -113 c-1 -73 -6
-122 -14 -138 -11 -21 -11 -27 2 -42 9 -10 19 -32 23 -50 8 -41 57 -73 101
-66 24 4 35 0 47 -17 20 -29 96 -33 125 -6 25 21 48 13 29 -10 -40 -51 -61
-64 -100 -64 -43 0 -116 36 -139 68 -7 10 -26 27 -41 37 -16 10 -33 28 -37 39
-7 15 -9 17 -9 5 -1 -9 6 -22 14 -29 13 -10 13 -15 3 -21 -7 -4 -9 -11 -5 -16
5 -4 12 -1 17 7 7 12 12 10 29 -9 11 -13 18 -27 16 -32 -7 -10 -73 0 -105 16
-14 7 -43 21 -65 31 -22 9 -53 28 -68 40 -28 24 -74 34 -62 14 4 -6 11 -8 16
-5 16 10 33 -6 18 -17 -11 -7 -11 -8 1 -7 8 1 53 -16 100 -38 87 -41 155 -59
165 -43 3 6 24 -2 46 -17 52 -34 135 -43 172 -18 14 9 30 14 35 12 4 -3 14 -1
22 5 12 8 12 9 -2 4 -26 -8 -30 9 -8 35 11 13 19 18 20 12 0 -7 4 -13 9 -13
12 0 57 43 69 66 18 36 1 93 -29 94 -4 0 -19 -16 -34 -36 -15 -19 -37 -39 -49
-44 -21 -9 -21 -9 0 -9 11 -1 29 8 39 19 14 16 20 17 27 8 4 -7 8 -18 8 -24 0
-15 -58 -55 -65 -45 -3 6 8 18 25 27 16 10 30 22 30 26 0 4 -22 -8 -48 -26
-61 -44 -100 -60 -117 -46 -6 5 -15 7 -19 3 -3 -4 -13 3 -22 15 -8 12 -24 22
-35 22 -11 0 -19 7 -19 16 0 11 6 15 20 11 11 -3 20 -1 20 4 0 5 -13 8 -29 7
-38 -3 -74 28 -65 55 4 14 2 18 -7 15 -8 -3 -13 -15 -11 -26 2 -15 -2 -22 -12
-22 -9 0 -16 8 -16 20 0 10 -8 23 -17 29 -15 8 -15 11 -3 26 11 13 13 45 11
130 l-2 113 41 39 c43 40 102 63 108 44 2 -6 15 -11 28 -11 14 0 35 -5 46 -11
15 -8 19 -8 14 0 -5 7 1 11 14 11 12 0 18 5 15 10 -4 6 -13 7 -23 1 -20 -10
-82 -3 -82 10 0 10 -21 10 -61 0z m311 -390 c7 -14 7 -28 -1 -48 -13 -34 -49
-74 -60 -67 -5 3 5 17 21 31 30 24 30 26 15 50 -13 19 -14 27 -4 39 15 18 16
18 29 -5z m-317 -77 c-7 -18 -10 -18 -44 7 -26 18 -43 49 -19 34 6 -3 10 -1
10 5 0 6 13 1 29 -11 17 -12 27 -28 24 -35z"/>
<path d="M2642 2260 c0 -14 2 -19 5 -12 2 6 2 18 0 25 -3 6 -5 1 -5 -13z"/>
<path d="M3255 2260 c-16 -11 -25 -20 -20 -20 6 1 19 7 29 15 28 21 92 19 106
-2 10 -16 10 -16 8 2 -5 29 -82 33 -123 5z"/>
<path d="M2943 2226 c0 -22 2 -32 4 -21 3 11 11 25 18 31 11 8 10 12 -4 21
-15 9 -17 6 -18 -31z"/>
<path d="M2385 2248 c4 -9 1 -33 -5 -55 -18 -57 -28 -123 -19 -123 4 0 9 19
12 43 3 23 10 61 17 85 10 34 10 46 1 55 -9 9 -11 8 -6 -5z"/>
<path d="M1797 2220 c8 -46 10 -47 15 -11 2 16 1 28 -3 25 -4 -2 -10 2 -12 8
-3 7 -3 -3 0 -22z"/>
<path d="M2040 2235 c-11 -13 -10 -14 4 -9 9 3 16 10 16 15 0 13 -6 11 -20 -6z"/>
<path d="M1307 2233 c-10 -10 -8 -49 4 -100 13 -50 62 -92 85 -72 8 7 14 6 17
-3 4 -8 6 -6 6 5 1 14 -4 16 -23 11 -32 -8 -81 37 -73 67 3 10 1 19 -5 19 -6
0 -8 17 -6 40 2 22 3 40 2 40 0 0 -4 -3 -7 -7z"/>
<path d="M1480 2232 c0 -5 7 -15 15 -22 8 -7 15 -8 15 -2 0 5 -7 15 -15 22 -8
7 -15 8 -15 2z"/>
<path d="M3284 2225 c11 -8 22 -12 25 -9 6 6 -19 24 -34 24 -5 -1 -1 -7 9 -15z"/>
<path d="M1743 2207 c22 -18 28 -33 33 -84 5 -50 4 -65 -10 -78 -9 -9 -16 -21
-16 -28 0 -6 10 0 21 12 20 21 21 30 15 94 -7 76 -15 92 -49 101 -19 5 -18 3
6 -17z"/>
<path d="M1988 2213 c7 -3 16 -2 19 1 4 3 -2 6 -13 5 -11 0 -14 -3 -6 -6z"/>
<path d="M3176 2211 c5 -4 52 -13 104 -19 54 -7 121 -22 155 -37 66 -27 91
-30 131 -15 39 15 24 21 -19 8 -32 -10 -45 -8 -97 13 -33 13 -60 28 -60 32 0
5 -7 7 -15 4 -8 -4 -42 -2 -77 3 -120 18 -131 19 -122 11z"/>
<path d="M1685 2198 c-28 -16 -35 -28 -35 -66 0 -35 -55 -105 -68 -87 -4 6
-14 11 -22 13 -10 1 -9 -2 4 -13 25 -19 26 -19 59 8 23 18 30 34 34 71 5 40
11 51 37 67 33 20 25 26 -9 7z"/>
<path d="M1838 2194 c-4 -3 -4 -13 -1 -22 5 -11 2 -14 -10 -9 -10 4 -17 2 -17
-4 0 -6 9 -9 19 -6 15 4 23 -3 31 -27 30 -81 30 -83 -2 -111 -25 -22 -28 -31
-22 -58 3 -18 12 -35 18 -39 7 -5 2 -17 -16 -35 l-28 -27 5 54 4 55 -9 -50
c-11 -62 0 -78 35 -45 25 23 34 60 15 60 -11 0 -14 63 -4 73 4 3 16 0 28 -8
31 -21 101 -17 122 7 16 17 16 18 1 12 -11 -4 -17 -1 -17 9 0 9 -5 19 -12 23
-8 5 -9 2 -4 -12 13 -34 11 -37 -26 -40 -21 -2 -38 1 -38 6 0 5 -7 7 -15 4
-21 -9 -19 2 7 26 18 17 19 20 5 20 -9 0 -17 6 -17 14 0 23 -46 137 -52 130z"/>
<path d="M2308 2193 c-7 -38 -4 -61 9 -56 15 6 18 49 3 58 -5 3 -11 3 -12 -2z
m9 -35 c-3 -8 -6 -5 -6 6 -1 11 2 17 5 13 3 -3 4 -12 1 -19z"/>
<path d="M3074 2190 c-11 -4 -60 -50 -108 -101 -47 -52 -97 -99 -109 -106 -12
-7 -16 -12 -8 -13 8 0 62 47 120 104 58 57 115 108 126 114 23 13 9 15 -21 2z"/>
<path d="M3131 2194 c-1 -7 10 -19 24 -28 31 -20 41 -21 25 -1 -7 8 -18 15
-25 15 -8 0 -16 6 -18 13 -4 7 -6 8 -6 1z"/>
<path d="M1932 2170 c0 -8 4 -26 8 -40 6 -20 8 -21 8 -5 0 11 -3 29 -8 40 -5
12 -8 14 -8 5z"/>
<path d="M1470 2150 c0 -11 -4 -20 -9 -20 -4 0 -7 -15 -4 -34 2 -19 -1 -37 -7
-41 -5 -3 -10 -11 -10 -16 0 -6 4 -8 9 -5 12 8 24 -25 13 -36 -4 -4 -19 3 -32
17 -13 14 -28 25 -34 25 -5 0 5 -13 22 -28 18 -16 32 -35 32 -43 1 -8 8 -2 16
14 10 18 12 33 6 45 -11 20 -7 77 7 115 7 17 7 27 1 27 -6 0 -10 -9 -10 -20z"/>
<path d="M3200 2153 c0 -18 33 -43 100 -75 50 -24 62 -21 15 4 -91 48 -104 78
-32 78 45 -1 64 -9 120 -55 30 -24 34 -32 24 -45 -11 -13 -10 -13 6 -1 13 10
21 11 29 3 16 -16 -37 -27 -67 -14 -19 9 -29 6 -59 -16 -46 -35 -48 -43 -26
-87 19 -37 19 -38 -3 -55 -24 -20 -37 -17 -37 6 0 9 -29 44 -65 80 -36 35 -63
69 -60 74 3 6 1 10 -4 10 -27 0 -6 -37 48 -89 55 -52 120 -160 161 -265 6 -16
13 -27 15 -24 7 7 -30 103 -55 143 l-22 36 25 19 c22 18 24 24 17 51 -5 17
-14 36 -19 43 -7 8 2 21 29 44 22 18 41 28 45 22 7 -11 54 -13 79 -4 27 10 18
29 -31 65 -92 68 -95 69 -165 69 -58 0 -68 -3 -68 -17z m30 -3 c0 -5 -4 -10
-10 -10 -5 0 -10 5 -10 10 0 6 5 10 10 10 6 0 10 -4 10 -10z"/>
<path d="M1340 2152 c0 -8 8 -24 18 -36 13 -16 24 -20 46 -16 16 3 31 12 34
20 4 12 2 13 -9 3 -23 -22 -57 -15 -73 15 -8 15 -15 21 -16 14z"/>
<path d="M2533 2138 c-18 -11 -33 -24 -33 -29 0 -6 15 2 34 16 25 19 41 24 63
20 23 -4 24 -4 8 4 -28 13 -35 12 -72 -11z"/>
<path d="M3131 2138 c-14 -23 -14 -23 8 -4 22 20 25 26 13 26 -4 0 -13 -10
-21 -22z"/>
<path d="M3302 2122 c13 -15 68 -46 68 -38 0 3 -15 13 -32 22 -30 16 -31 18
-13 25 17 6 16 7 -7 6 -21 -1 -25 -4 -16 -15z"/>
<path d="M2588 2110 c-7 -11 -18 -20 -25 -20 -7 0 -18 -10 -24 -22 -7 -13 -30
-41 -52 -63 -22 -22 -46 -50 -54 -62 -16 -25 -10 -45 11 -37 8 3 16 -2 19 -13
4 -14 5 -13 6 5 0 13 5 21 10 18 5 -3 12 1 15 10 5 13 9 14 21 4 11 -9 18 -10
28 -1 8 6 17 8 20 5 3 -4 -21 -26 -54 -51 -32 -25 -59 -50 -59 -57 0 -7 -28
-31 -62 -54 -61 -40 -101 -81 -127 -131 -18 -33 -9 -125 14 -151 20 -22 44
-28 26 -7 -6 8 -7 18 -3 22 4 5 1 5 -6 1 -15 -9 -32 32 -32 77 1 56 51 122
137 179 35 23 63 49 63 57 0 9 11 23 24 31 12 8 45 30 71 48 36 23 60 32 91
32 33 0 45 5 57 23 15 23 15 24 -11 20 -21 -4 -24 -2 -12 6 13 9 13 11 -1 11
-9 0 -19 -7 -23 -15 -4 -10 1 -15 14 -15 11 0 20 -4 20 -9 0 -5 -18 -9 -40 -9
-40 -1 -40 0 -40 37 0 20 6 43 13 50 8 9 8 12 0 7 -6 -3 -13 -1 -15 6 -2 6
-14 -3 -27 -20 -12 -18 -29 -32 -37 -32 -8 0 -14 -8 -13 -17 0 -11 3 -13 6 -5
2 6 11 12 18 12 7 0 22 12 32 26 l19 25 -4 -43 c-5 -49 -18 -70 -32 -49 -7 13
-11 13 -25 1 -15 -12 -19 -12 -29 2 -12 16 -14 15 -33 -3 -11 -12 -28 -19 -37
-17 -13 2 -4 16 37 58 30 30 59 65 66 78 6 12 17 22 24 22 15 1 52 50 38 50
-6 0 -16 -9 -23 -20z"/>
<path d="M2917 2123 c-4 -3 -7 -16 -7 -29 0 -12 -12 -37 -26 -54 -24 -28 -28
-30 -44 -15 -9 8 -20 12 -23 9 -8 -8 22 -33 39 -34 6 0 33 26 60 58 26 31 38
48 25 37 l-24 -20 5 28 c6 29 5 31 -5 20z"/>
<path d="M3054 2075 c-26 -24 -52 -41 -57 -38 -6 3 -7 1 -3 -6 4 -6 3 -18 -4
-26 -13 -15 4 -95 20 -95 5 0 2 16 -6 35 -15 38 -11 56 23 86 32 30 86 89 80
89 -3 0 -27 -20 -53 -45z"/>
<path d="M2320 2075 c-7 -8 -10 -15 -6 -15 17 0 -28 -49 -47 -52 -14 -2 -29
-17 -40 -42 l-19 -39 -25 29 c-13 16 -22 22 -20 13 3 -9 -1 -26 -9 -37 -8 -11
-10 -23 -5 -26 5 -3 12 6 15 19 6 23 8 24 22 11 20 -20 36 -12 54 27 9 18 25
34 38 37 13 3 30 16 37 29 l13 25 13 -22 c8 -12 20 -22 28 -22 8 0 3 9 -13 23
-18 16 -25 29 -20 40 8 21 0 22 -16 2z"/>
<path d="M2416 2034 c-4 -9 -4 -19 -1 -22 2 -3 7 3 11 12 4 9 4 19 1 22 -2 3
-7 -3 -11 -12z"/>
<path d="M1720 2015 c-9 -10 -17 -12 -30 -5 -14 7 -25 2 -54 -27 l-36 -36 -15
38 c-19 44 -30 42 -13 -3 17 -44 35 -47 66 -12 27 31 48 38 54 19 2 -6 13 -3
28 9 14 11 22 23 19 26 -3 4 -12 0 -19 -9z"/>
<path d="M1792 1978 c-4 -71 -16 -96 -49 -100 -19 -2 -29 -10 -31 -23 -4 -18
-3 -19 10 -3 7 9 24 18 38 20 21 2 26 10 33 48 4 25 12 57 16 72 6 18 5 28 -3
31 -7 3 -12 -13 -14 -45z"/>
<path d="M2643 2018 c-13 -17 -23 -58 -15 -58 4 0 12 16 18 35 12 38 11 41 -3
23z"/>
<path d="M3037 1996 c-15 -12 -17 -22 -12 -59 5 -33 3 -47 -7 -53 -17 -11 -51
-64 -41 -64 5 0 16 14 25 30 9 17 23 30 31 30 12 0 13 8 5 46 -8 38 -7 48 8
65 20 22 17 24 -9 5z"/>
<path d="M1747 1980 c-3 -11 -2 -22 2 -24 4 -3 8 6 9 20 2 29 -4 31 -11 4z"/>
<path d="M2410 1992 c0 -4 -16 -25 -35 -47 -20 -21 -33 -40 -30 -43 5 -6 85
79 85 90 0 5 -4 8 -10 8 -5 0 -10 -4 -10 -8z"/>
<path d="M1688 1958 c-11 -26 1 -47 28 -54 23 -6 61 13 49 24 -2 3 -11 -1 -20
-8 -21 -18 -43 -6 -47 27 -2 22 -5 24 -10 11z"/>
<path d="M2088 1924 c25 -20 32 -33 32 -59 0 -19 -4 -37 -10 -40 -5 -3 -10
-17 -10 -31 0 -15 -6 -24 -15 -24 -8 0 -15 -7 -15 -16 0 -9 -5 -12 -12 -8 -7
4 -6 -1 4 -11 28 -31 80 -13 129 45 23 27 54 53 70 59 16 5 29 16 29 22 0 7
10 23 22 36 12 13 17 23 11 23 -12 0 -38 -29 -46 -52 -4 -10 -14 -18 -22 -18
-9 0 -43 -27 -74 -60 -57 -59 -101 -79 -101 -45 0 8 7 15 15 15 9 0 15 9 15
24 0 13 9 35 21 50 11 14 16 26 10 26 -6 0 -11 9 -11 20 0 22 -45 70 -64 70
-6 0 4 -12 22 -26z"/>
<path d="M2924 1923 c-6 -16 -15 -41 -20 -58 -6 -17 -21 -36 -37 -43 -32 -15
-33 -18 -41 -86 -8 -63 3 -54 12 10 6 39 12 50 37 64 17 9 34 29 39 46 5 16
13 39 18 51 6 11 9 26 7 32 -2 6 -9 -1 -15 -16z"/>
<path d="M2960 1916 c4 -19 4 -40 -1 -47 -5 -8 -8 -25 -8 -39 1 -21 2 -21 6
-5 3 11 9 25 13 30 10 12 1 95 -10 95 -4 0 -4 -15 0 -34z"/>
<path d="M2806 1896 c-11 -24 -27 -38 -51 -46 -19 -6 -40 -21 -46 -31 -8 -16
-13 -18 -25 -9 -14 13 -9 34 6 25 4 -3 6 3 3 13 -2 10 3 24 11 31 13 11 13 15
1 27 -7 8 -17 14 -21 14 -5 0 -3 -5 3 -11 11 -11 -8 -62 -28 -74 -5 -4 -9 -15
-9 -26 0 -25 -45 -115 -77 -153 -19 -23 -23 -37 -19 -60 4 -21 -1 -44 -15 -70
-11 -21 -18 -40 -15 -43 2 -2 18 24 34 59 47 97 120 191 201 257 23 19 40 40
37 47 -3 7 7 25 20 39 16 17 22 31 16 37 -6 6 -16 -4 -26 -26z m-52 -86 c-21
-22 -45 -40 -51 -40 -7 0 -20 -12 -30 -27 -10 -16 -39 -56 -65 -91 -54 -71
-66 -58 -14 15 44 62 66 107 66 133 0 12 5 18 10 15 6 -4 8 -10 5 -15 -10 -16
25 -4 47 17 22 20 43 31 62 32 5 1 -8 -17 -30 -39z"/>
<path d="M3191 1893 c-13 -15 -30 -37 -38 -49 -14 -22 -14 -22 -56 -4 -42 19
-57 18 -57 -4 0 -17 47 -39 55 -25 4 5 15 7 25 4 10 -3 23 0 29 7 5 7 26 32
47 56 20 23 32 42 28 42 -5 0 -20 -13 -33 -27z m-101 -63 c0 -5 -6 -10 -14
-10 -8 0 -18 5 -21 10 -3 6 3 10 14 10 12 0 21 -4 21 -10z"/>
<path d="M2175 1890 c-27 -30 -12 -34 15 -5 13 14 19 25 13 25 -5 0 -18 -9
-28 -20z"/>
<path d="M3206 1858 c-38 -48 -158 -168 -168 -168 -4 0 -7 5 -5 12 1 6 -5 13
-14 15 -15 4 -119 -103 -119 -121 0 -4 -23 -41 -51 -82 -28 -42 -57 -91 -65
-111 -23 -53 -116 -173 -136 -173 -9 0 -38 25 -65 55 -32 37 -56 55 -71 55
-13 0 -22 3 -20 8 22 50 79 142 110 177 22 25 35 45 29 45 -17 0 -90 -99 -127
-172 -19 -37 -36 -68 -38 -68 -1 0 -17 5 -34 11 -37 13 -34 28 14 79 50 53 90
139 84 180 -7 46 -21 46 -49 0 -20 -31 -30 -39 -48 -36 -19 4 -23 -1 -29 -30
-3 -18 -11 -31 -16 -28 -5 4 -8 14 -5 24 2 10 1 24 -3 31 -5 7 -1 28 11 50 26
52 24 66 -11 84 -37 19 -46 19 -30 0 15 -18 -1 -66 -22 -64 -10 0 -10 2 0 6
15 6 16 30 0 39 -8 5 -9 2 -5 -10 5 -13 1 -19 -12 -23 -17 -4 -49 -79 -38 -89
2 -2 9 14 16 36 6 22 17 40 22 40 7 0 8 -7 4 -17 -14 -35 -17 -90 -6 -97 6 -4
12 -19 12 -34 1 -16 5 -7 10 22 12 73 40 91 44 29 3 -50 5 -54 16 -47 6 3 15
1 19 -6 4 -7 7 5 6 26 -1 35 2 39 25 42 17 2 34 16 52 44 l27 42 0 -31 c0 -44
-37 -122 -81 -170 -22 -24 -39 -49 -39 -58 0 -8 -4 -15 -10 -15 -5 0 -10 -4
-10 -10 0 -5 3 -9 8 -8 11 4 72 -23 72 -32 0 -5 -19 -6 -42 -4 l-43 4 40 -10
c42 -11 69 -35 58 -54 -4 -6 2 -3 13 6 22 19 54 8 54 -20 0 -11 3 -13 8 -5 5
8 12 8 26 -3 17 -12 17 -14 3 -20 -10 -3 -25 -3 -34 1 -10 4 -38 9 -63 12 -46
5 -80 26 -80 50 0 22 -18 15 -42 -17 -12 -16 -28 -30 -35 -30 -17 0 -17 -26 0
-33 7 -3 25 -3 39 0 14 3 43 -3 64 -12 104 -47 131 -59 149 -68 13 -6 17 -6
10 0 -5 6 -35 23 -65 38 -30 15 -64 32 -74 37 -11 6 -40 12 -65 14 -25 2 -49
3 -52 4 -3 0 8 15 25 34 27 29 32 31 38 15 9 -24 35 -36 90 -42 26 -3 52 -9
58 -12 17 -11 60 4 60 20 0 8 -4 15 -10 15 -5 0 -25 11 -45 24 -20 14 -42 23
-50 20 -15 -6 -30 30 -20 46 8 13 65 13 65 0 0 -6 20 -33 46 -60 l45 -48 -22
-21 c-13 -12 -19 -21 -13 -21 16 0 39 19 39 31 0 7 6 14 13 17 10 3 12 -8 8
-49 l-5 -52 50 49 c27 26 49 53 49 58 0 5 12 23 28 39 l27 30 -27 -18 c-16 -9
-28 -21 -28 -25 0 -19 -52 -69 -65 -63 -23 8 -18 22 35 94 27 38 59 88 71 111
12 24 44 76 70 116 27 40 49 76 49 79 0 3 23 32 52 65 34 39 54 55 59 47 4 -6
0 -24 -10 -38 -9 -15 -25 -42 -36 -60 -73 -120 -142 -219 -186 -264 -28 -29
-55 -61 -61 -72 -5 -11 11 3 37 30 36 38 45 44 40 26 -5 -16 -4 -21 4 -17 6 4
11 13 11 21 0 7 33 62 73 123 39 60 81 124 92 143 11 18 25 41 30 50 10 15 92
95 104 101 14 7 123 139 119 144 -3 3 -17 -10 -32 -28z m-812 -187 c3 -5 -3
-29 -14 -52 -19 -42 -20 -43 -20 -14 0 58 18 92 34 66z m-46 -76 c0 -14 -6
-25 -14 -25 -8 0 -11 -6 -8 -15 4 -8 1 -15 -6 -15 -11 0 -6 51 7 73 9 15 21 6
21 -18z m332 -430 c-7 -9 -15 -13 -17 -11 -7 7 7 26 19 26 6 0 6 -6 -2 -15z"/>
<path d="M3342 1865 c-1 -29 22 -132 31 -141 4 -4 7 -17 8 -28 0 -13 3 -16 6
-8 3 8 1 24 -5 35 -6 12 -17 54 -25 92 -8 39 -15 61 -15 50z"/>
<path d="M2585 1854 c-16 -8 -37 -21 -45 -29 -8 -7 -24 -15 -35 -17 -13 -2
-20 -11 -20 -25 0 -12 -11 -33 -23 -46 -27 -28 -36 -86 -15 -94 8 -3 13 -14
10 -24 -3 -11 -1 -19 4 -19 5 0 9 11 9 25 0 14 -6 25 -14 25 -22 0 -9 62 17
82 12 9 22 27 22 40 0 15 7 24 20 26 11 2 29 12 40 23 12 10 39 25 60 33 24 9
32 15 20 15 -11 1 -33 -6 -50 -15z"/>
<path d="M1748 1839 c18 -17 25 -16 28 4 1 7 -9 12 -21 12 -22 0 -22 -1 -7
-16z"/>
<path d="M3221 1829 c-17 -17 -31 -33 -31 -37 0 -3 16 9 35 28 19 19 35 35 35
37 0 8 -11 0 -39 -28z"/>
<path d="M1986 1824 c1 -6 -20 -32 -47 -58 -47 -44 -58 -58 -41 -54 4 1 16 -1
27 -5 11 -3 43 0 70 7 28 8 43 15 35 15 -8 1 -32 -4 -53 -10 -20 -5 -42 -7
-47 -4 -13 8 19 50 62 82 21 15 26 23 16 23 -9 0 -18 3 -21 8 -2 4 -3 2 -1 -4z"/>
<path d="M3219 1797 c-25 -23 -76 -67 -113 -97 -36 -30 -66 -58 -66 -63 0 -9
26 10 97 71 103 88 138 121 133 126 -3 2 -26 -14 -51 -37z"/>
<path d="M2264 1806 c-3 -9 -11 -16 -18 -16 -18 -1 -53 -30 -35 -30 20 0 76
47 67 56 -4 4 -10 -1 -14 -10z"/>
<path d="M1726 1801 c-5 -8 84 -3 93 5 2 2 -16 4 -42 4 -25 0 -48 -4 -51 -9z"/>
<path d="M3082 1766 c7 -8 15 -12 17 -11 5 6 -10 25 -20 25 -5 0 -4 -6 3 -14z"/>
<path d="M1195 1720 c7 -12 -13 -52 -31 -63 -8 -4 -14 -13 -14 -19 0 -9 3 -9
12 0 19 19 30 14 18 -8 -6 -11 -8 -20 -5 -20 3 0 -1 -10 -9 -22 -9 -12 -16
-36 -16 -54 0 -48 -73 -216 -124 -283 -17 -22 -26 -48 -26 -70 0 -20 -7 -49
-16 -66 -9 -16 -20 -43 -24 -60 -5 -16 -17 -52 -28 -80 -29 -70 -35 -89 -34
-97 1 -5 -5 -8 -14 -8 -10 0 -14 5 -10 15 18 44 19 50 4 30 -9 -11 -18 -30
-22 -41 -6 -19 -3 -21 20 -16 25 5 26 3 20 -24 -4 -16 -8 -67 -10 -114 -1 -47
-8 -102 -16 -123 -14 -38 -14 -37 17 -199 7 -38 -21 -38 -41 0 -8 15 -15 21
-16 14 0 -26 21 -52 44 -52 19 0 28 -10 45 -51 31 -75 28 -88 -34 -149 -53
-52 -55 -53 -70 -35 -8 11 -15 23 -15 28 0 4 -32 5 -72 2 -39 -2 -77 -1 -82 4
-6 4 -32 15 -58 25 -51 19 -62 16 -125 -31 -35 -27 -119 -133 -105 -133 5 0
28 25 51 54 22 30 60 68 84 85 43 29 44 30 88 15 24 -9 49 -20 55 -25 7 -5 44
-8 83 -6 61 3 73 1 81 -13 7 -13 5 -20 -6 -24 -12 -4 -15 -2 -10 9 3 8 1 15
-4 15 -6 0 -10 -4 -10 -10 0 -5 -8 -7 -18 -4 -14 5 -14 3 2 -10 23 -19 38 -20
53 -5 7 7 16 3 31 -15 24 -31 52 -34 52 -7 0 22 -16 36 -24 22 -4 -5 0 -11 6
-14 7 -2 10 -8 5 -13 -4 -4 -14 -1 -23 7 -13 14 -8 22 46 76 l61 61 20 -22
c16 -17 17 -22 6 -24 -19 -4 -10 -42 9 -42 8 0 14 5 14 11 0 5 -5 7 -10 4 -11
-7 -14 8 -4 18 7 6 90 -55 119 -88 22 -25 81 -48 97 -39 5 4 21 1 34 -7 36
-19 76 -2 89 38 15 46 53 83 86 83 15 0 29 -6 32 -14 3 -8 28 -17 57 -21 51
-7 53 -6 91 31 45 44 51 29 14 -31 -30 -49 -32 -75 -6 -75 22 0 110 113 135
174 24 57 19 57 -12 1 -49 -89 -132 -190 -132 -160 0 3 12 28 26 55 16 31 23
57 19 70 -4 13 4 43 23 83 17 34 33 74 36 88 3 14 17 43 31 63 14 21 24 40 22
43 -9 8 -50 -59 -63 -104 -8 -25 -25 -66 -39 -91 -14 -24 -25 -50 -25 -56 0
-7 -18 -29 -39 -50 -36 -36 -42 -38 -81 -31 -23 4 -44 13 -47 21 -3 9 -20 14
-42 14 -42 0 -91 -41 -91 -76 0 -38 -58 -71 -76 -43 -3 6 -18 9 -32 6 -14 -3
-37 0 -51 7 -26 10 -42 24 -148 123 -25 24 -50 43 -55 43 -5 0 -10 6 -12 13
-3 6 -15 44 -29 82 -13 39 -33 104 -43 146 -17 73 -17 80 0 151 9 40 16 98 15
128 -2 78 16 178 46 241 13 30 25 60 25 67 0 7 9 30 20 52 11 22 20 54 20 73
0 21 11 49 28 73 51 71 122 236 122 283 0 20 5 42 10 47 6 6 13 20 15 32 3 12
7 32 10 45 2 12 7 34 11 50 3 17 1 27 -6 27 -6 0 -8 -4 -5 -10z"/>
<path d="M395 1676 c-10 -52 0 -70 63 -109 31 -19 67 -49 80 -66 12 -17 28
-31 34 -31 6 0 21 -8 32 -17 21 -18 21 -18 4 3 -10 11 -18 24 -18 28 0 19 -93
193 -112 209 -11 9 -33 17 -49 17 -24 0 -29 -5 -34 -34z m73 7 c17 -15 112
-185 112 -201 0 -3 -20 15 -45 41 -24 26 -50 47 -56 47 -25 0 -79 51 -79 75 0
55 29 71 68 38z"/>
<path d="M476 1623 c-4 -10 1 -25 14 -37 11 -11 20 -15 20 -9 0 6 -6 16 -14
23 -8 6 -12 18 -9 26 3 8 3 14 0 14 -3 0 -8 -8 -11 -17z"/>
<path d="M1413 1698 c10 -8 17 -19 15 -25 -5 -17 43 -54 63 -48 12 4 18 0 21
-14 3 -20 4 -20 14 2 10 22 8 23 -19 22 -16 -1 -35 4 -42 12 -8 7 -18 13 -23
13 -5 0 -8 10 -8 22 1 15 -6 24 -19 26 -19 4 -19 3 -2 -10z"/>
<path d="M1858 1693 c6 -2 18 -2 25 0 6 3 1 5 -13 5 -14 0 -19 -2 -12 -5z"/>
<path d="M2725 1680 c-4 -6 0 -19 9 -28 12 -14 13 -21 3 -38 -50 -87 -91 -174
-83 -174 2 0 18 28 36 63 18 34 39 70 48 80 9 10 16 27 17 39 2 29 -21 73 -30
58z"/>
<path d="M560 1665 c0 -8 9 -15 20 -15 11 0 20 7 20 15 0 8 -9 15 -20 15 -11
0 -20 -7 -20 -15z"/>
<path d="M626 1671 c-10 -16 5 -42 23 -39 21 4 21 42 -1 46 -9 2 -19 -1 -22
-7z m28 -22 c-3 -5 -10 -7 -15 -3 -5 3 -7 10 -3 15 3 5 10 7 15 3 5 -3 7 -10
3 -15z"/>
<path d="M220 1661 c0 -6 6 -8 13 -5 17 6 69 -34 61 -47 -4 -6 -12 -5 -22 4
-35 29 -46 29 -18 -1 25 -27 30 -29 43 -16 17 17 37 18 66 2 20 -10 21 -10 8
5 -7 10 -21 17 -31 17 -9 0 -28 9 -42 19 -30 24 -78 38 -78 22z"/>
<path d="M2674 1639 c-10 -12 -31 -27 -46 -35 -16 -8 -28 -19 -28 -25 0 -8 4
-8 13 0 8 6 18 7 22 3 5 -4 5 -1 1 6 -4 7 -2 12 5 12 11 0 59 45 59 56 0 8 -7
4 -26 -17z"/>
<path d="M560 1619 c0 -12 7 -19 18 -19 10 0 19 6 19 14 0 8 -9 17 -19 19 -13
4 -18 0 -18 -14z"/>
<path d="M1549 1619 c-13 -10 -19 -19 -13 -19 6 0 17 6 23 14 7 8 21 12 31 9
24 -6 24 -6 5 -43 -9 -17 -11 -30 -5 -30 5 0 10 8 10 18 0 15 2 15 11 2 8 -12
9 -10 4 9 -5 16 -4 21 4 17 6 -4 11 -1 11 7 0 21 24 28 75 22 24 -3 46 -2 48
2 6 10 -109 11 -118 1 -4 -3 -19 -3 -34 2 -21 6 -34 3 -52 -11z"/>
<path d="M1965 1614 c-27 -7 -61 -14 -75 -15 -23 -1 -22 -2 5 -8 17 -4 41 -1
55 5 14 7 43 15 65 19 37 5 43 3 80 -32 57 -55 124 -107 164 -128 38 -19 91
-73 91 -92 0 -7 5 -13 11 -13 24 0 -40 84 -82 108 -44 24 -122 83 -149 111
-33 35 -74 61 -94 60 -11 0 -43 -7 -71 -15z"/>
<path d="M2401 1593 c-10 -22 -10 -25 2 -15 8 7 17 9 21 5 4 -4 4 1 0 11 -6
15 -4 17 6 11 9 -5 11 -4 6 3 -11 19 -22 14 -35 -15z"/>
<path d="M1406 1592 c-3 -5 0 -12 8 -15 8 -3 16 -16 18 -28 4 -27 23 -36 31
-15 4 10 1 13 -9 9 -8 -3 -14 1 -14 10 0 9 8 18 18 20 14 4 13 5 -3 6 -12 0
-26 6 -32 12 -7 7 -13 7 -17 1z"/>
<path d="M379 1574 c-6 -8 -19 -14 -28 -15 -12 0 -11 -2 4 -8 15 -6 22 -4 29
10 8 16 13 15 63 -18 38 -26 50 -39 41 -45 -11 -6 -11 -8 0 -8 8 0 10 -5 6
-12 -5 -10 -4 -10 5 -2 23 21 7 45 -51 79 -48 29 -58 32 -69 19z"/>
<path d="M1646 1583 c2 -3 -3 -12 -11 -20 -8 -8 -15 -19 -15 -26 0 -6 10 -1
21 12 13 14 18 26 12 31 -6 4 -9 5 -7 3z"/>
<path d="M2017 1572 c-24 -15 -29 -15 -37 -2 -8 13 -10 12 -10 -2 0 -22 28
-23 58 -2 12 8 27 12 33 9 7 -5 3 -12 -9 -21 -20 -14 -36 -54 -22 -54 4 0 10
10 13 22 5 18 8 19 21 8 11 -8 16 -9 16 -1 0 6 -5 11 -11 11 -5 0 -7 5 -3 11
4 8 11 7 20 -3 12 -11 12 -20 3 -47 -9 -26 -9 -38 0 -52 6 -10 11 -25 11 -33
0 -7 10 -26 22 -41 19 -24 20 -29 7 -39 -17 -12 -33 -60 -18 -50 5 3 9 10 9
15 0 5 14 23 30 39 28 27 35 29 73 24 67 -11 88 -21 80 -40 -4 -12 -3 -15 5
-10 42 26 -18 58 -108 59 -64 0 -90 17 -90 59 0 21 0 21 37 7 22 -8 25 -12 13
-21 -13 -8 -12 -9 1 -5 9 3 22 0 28 -6 7 -7 11 -7 11 -1 0 20 -36 44 -71 48
-35 4 -37 9 -24 58 5 21 2 32 -19 52 -29 30 -31 30 -69 8z"/>
<path d="M2841 1564 c-30 -38 -26 -55 4 -19 23 28 31 45 21 45 -3 0 -14 -12
-25 -26z"/>
<path d="M1523 1572 c-25 -2 -33 -8 -33 -22 0 -23 -35 -44 -61 -37 -15 4 -19
0 -19 -20 0 -13 -4 -33 -10 -43 -8 -15 -1 -28 41 -72 45 -47 60 -51 20 -5 -13
16 -13 20 -1 28 12 8 10 9 -7 4 -28 -8 -45 22 -37 64 7 33 21 39 43 19 8 -7
11 -8 8 -2 -8 15 26 42 60 47 l28 4 -27 2 c-16 0 -28 6 -28 11 0 15 57 12 63
-2 3 -8 6 -7 6 4 1 21 -6 24 -46 20z"/>
<path d="M3146 1486 c-25 -40 -46 -80 -46 -87 0 -7 -17 -31 -37 -53 l-38 -39
33 22 c17 12 32 27 32 33 0 7 5 7 14 -1 22 -18 90 13 155 71 33 30 57 58 54
65 -9 22 -44 5 -100 -48 -28 -27 -57 -49 -63 -49 -5 0 8 29 31 65 37 59 45 95
20 95 -5 0 -30 -33 -55 -74z m25 -19 c-38 -59 -49 -87 -36 -87 12 0 63 37 108
78 27 24 51 41 54 38 10 -10 -90 -96 -135 -116 -47 -22 -65 -19 -55 8 12 34
97 165 101 154 2 -6 -15 -40 -37 -75z"/>
<path d="M241 1536 c3 -4 37 -10 75 -15 38 -5 87 -16 109 -26 35 -15 38 -18
20 -25 -54 -23 -159 -4 -187 33 -10 12 -18 16 -18 10 -1 -44 86 -71 185 -58
48 6 54 9 46 24 -6 10 -36 25 -68 34 -61 17 -172 32 -162 23z"/>
<path d="M1568 1524 c-16 -8 -28 -22 -28 -32 0 -13 3 -12 16 6 8 12 24 22 34
22 16 0 17 -4 10 -30 -5 -17 -5 -28 -1 -25 14 8 19 54 7 64 -7 6 -21 4 -38 -5z"/>
<path d="M600 1500 c0 -13 7 -20 20 -20 13 0 20 7 20 20 0 13 -7 20 -20 20
-13 0 -20 -7 -20 -20z m30 0 c0 -5 -4 -10 -10 -10 -5 0 -10 5 -10 10 0 6 5 10
10 10 6 0 10 -4 10 -10z"/>
<path d="M306 1497 c3 -10 9 -15 12 -12 3 3 0 11 -7 18 -10 9 -11 8 -5 -6z"/>
<path d="M1288 1487 c9 -11 11 -21 4 -33 -8 -15 -11 -14 -25 7 -9 12 -20 19
-24 15 -4 -4 -2 -10 4 -14 19 -12 33 -58 21 -70 -5 -5 -8 -18 -5 -28 4 -16 5
-15 6 4 0 12 4 22 9 22 7 0 80 -105 101 -147 9 -17 20 -23 47 -23 24 0 46 -9
66 -25 16 -13 46 -29 67 -35 21 -5 46 -19 56 -30 10 -11 27 -20 37 -20 10 0
31 -9 46 -20 15 -11 48 -21 75 -23 26 -2 50 -7 54 -10 3 -4 15 -7 25 -7 10 0
27 -4 38 -10 11 -5 29 -14 40 -20 17 -9 46 -17 127 -37 15 -3 34 4 59 25 32
26 40 29 68 21 17 -5 60 -14 96 -19 36 -4 80 -12 98 -15 28 -7 32 -5 32 14 0
14 -9 25 -25 31 -14 5 -28 16 -31 24 -8 21 -40 26 -61 10 -16 -13 -16 -14 9
-8 18 4 32 0 46 -13 10 -10 27 -23 38 -29 32 -19 11 -24 -52 -13 -141 26 -174
34 -174 41 0 4 -5 8 -11 8 -5 0 -7 -4 -4 -10 3 -5 2 -10 -4 -10 -5 0 -23 -11
-39 -25 -30 -25 -31 -25 -87 -10 -32 8 -62 18 -69 23 -18 14 -128 45 -171 48
-21 2 -52 13 -67 24 -15 11 -35 20 -44 20 -10 0 -27 8 -38 18 -12 10 -42 26
-67 36 -26 9 -55 26 -64 36 -12 13 -31 20 -56 20 -32 0 -41 5 -53 28 -8 16
-35 59 -61 97 -28 43 -42 71 -35 75 17 11 17 62 0 68 -13 4 -13 3 -2 -11z"/>
<path d="M570 1452 c0 -6 9 -17 21 -24 22 -14 33 -35 73 -139 32 -82 32 -89
-1 -89 -16 0 -37 -3 -49 -6 -12 -3 -27 1 -36 10 -14 14 -17 13 -31 -2 -13 -15
-13 -21 -2 -47 l14 -30 -6 33 c-4 25 -2 32 10 32 9 0 19 -5 22 -10 4 -7 12 -7
25 0 10 5 34 10 54 10 19 0 37 3 39 8 10 15 -74 208 -103 237 -17 16 -30 24
-30 17z"/>
<path d="M694 1423 c-11 -24 -14 -49 -9 -73 4 -19 7 -43 6 -53 0 -10 9 -33 20
-50 11 -19 19 -25 19 -16 0 9 -7 22 -15 29 -17 14 -21 45 -5 35 15 -9 12 7 -5
29 -19 25 -19 59 0 96 27 53 45 33 45 -50 0 -27 -4 -52 -10 -55 -5 -3 -10 -14
-10 -23 1 -12 5 -10 15 8 14 25 20 115 9 144 -11 30 -44 18 -60 -21z"/>
<path d="M1516 1438 c-20 -28 -21 -44 -2 -29 11 9 16 6 24 -18 7 -21 7 -32 -1
-41 -10 -10 -8 -10 8 0 24 14 56 66 47 75 -3 3 -14 -9 -24 -27 -11 -18 -17
-26 -15 -18 3 8 -2 23 -10 32 -22 24 -7 40 30 33 24 -5 28 -4 17 4 -25 17 -58
12 -74 -11z"/>
<path d="M3040 1418 c-16 -24 -41 -59 -55 -78 -14 -19 -38 -63 -55 -97 -16
-34 -34 -64 -39 -67 -5 -3 -14 8 -20 25 -8 24 -8 36 2 47 10 13 9 14 -3 10
-18 -6 -16 -64 2 -86 10 -11 8 -17 -7 -29 -63 -45 -62 -45 -35 -32 42 19 90
71 100 109 10 34 80 133 80 112 0 -5 -16 -34 -35 -63 -20 -29 -34 -58 -31 -65
5 -13 -74 -93 -113 -113 -12 -7 -20 -15 -17 -18 9 -9 76 41 146 109 69 68 150
158 141 158 -12 -1 -48 -36 -90 -87 -58 -72 -88 -73 -36 -2 14 19 32 48 40 66
8 17 19 35 25 38 14 9 60 82 60 95 0 24 -33 7 -60 -32z m19 -20 c-46 -60 -49
-64 -49 -51 0 14 71 106 77 99 3 -3 -9 -24 -28 -48z"/>
<path d="M1206 1435 c-3 -9 -3 -22 1 -28 4 -7 6 -20 5 -30 -2 -10 1 -24 6 -30
6 -7 13 -29 17 -49 6 -30 12 -37 34 -40 15 -2 26 -9 26 -18 0 -11 -15 -16 -57
-20 -31 -3 -60 -8 -64 -12 -6 -7 76 -2 123 8 30 6 19 40 -18 53 -19 7 -30 19
-34 38 -4 15 -10 37 -15 48 -4 11 -8 36 -9 54 -2 41 -6 48 -15 26z"/>
<path d="M1908 1428 c-2 -17 -11 -24 -31 -26 -28 -3 -50 -31 -42 -54 6 -14 56
-41 63 -34 2 3 -10 12 -27 21 -52 26 -35 49 44 60 55 8 75 20 75 43 0 12 -4
11 -16 -6 -20 -29 -59 -30 -51 -2 3 11 1 20 -3 20 -5 0 -10 -10 -12 -22z"/>
<path d="M630 1439 c0 -4 7 -20 15 -35 8 -16 15 -22 15 -13 0 14 -29 61 -30
48z"/>
<path d="M2475 1399 c-5 -16 -9 -18 -15 -9 -5 8 -8 3 -7 -14 l2 -27 18 22 c9
12 17 27 17 35 0 21 -8 17 -15 -7z"/>
<path d="M562 1365 c-22 -18 -32 -22 -36 -13 -3 7 -3 2 0 -11 5 -18 3 -22 -7
-16 -8 5 -11 5 -7 1 3 -4 -9 -28 -28 -53 -19 -24 -37 -57 -40 -71 -6 -25 -27
-63 -75 -133 -9 -14 -33 -58 -53 -98 -38 -75 -62 -86 -50 -23 17 92 65 179
148 269 16 18 27 35 24 38 -3 3 -22 -14 -43 -37 -21 -24 -48 -50 -59 -58 -12
-8 -22 -22 -23 -30 -1 -8 -13 -46 -27 -83 -14 -38 -28 -90 -32 -117 -6 -43 -4
-48 12 -47 13 1 31 25 52 67 30 59 49 89 102 170 9 14 24 45 33 70 9 25 35 67
57 94 22 26 40 52 40 57 0 5 15 18 33 29 17 11 27 20 20 20 -6 0 -25 -11 -41
-25z m-212 -219 c0 -3 -4 -8 -10 -11 -5 -3 -10 -1 -10 4 0 6 5 11 10 11 6 0
10 -2 10 -4z"/>
<path d="M1390 1357 c27 -9 35 -18 37 -37 0 -14 6 -38 12 -55 l11 -30 -5 35
c-3 19 -6 45 -5 58 0 23 -32 43 -68 41 -9 0 -1 -5 18 -12z"/>
<path d="M414 1334 c-97 -51 -192 -153 -167 -178 20 -19 58 1 139 75 118 107
120 109 108 109 -5 0 -54 -40 -108 -90 -99 -90 -126 -105 -126 -73 0 38 154
157 225 174 29 7 29 7 4 8 -14 1 -48 -11 -75 -25z"/>
<path d="M2021 1343 c0 -11 3 -13 6 -5 6 14 23 16 23 2 0 -5 -12 -16 -27 -24
-16 -9 -22 -15 -12 -16 8 0 20 5 27 12 9 9 15 9 23 1 8 -8 3 -16 -21 -28 -26
-14 -34 -14 -48 -3 -12 10 -14 10 -8 1 5 -9 0 -13 -17 -13 -19 0 -28 9 -40 38
-18 43 -22 31 -6 -17 10 -28 15 -31 50 -31 22 0 57 9 79 20 44 22 58 38 33 36
-10 0 -18 5 -19 12 -1 6 -2 17 -3 22 -2 18 -41 11 -40 -7z"/>
<path d="M269 1348 c-12 -41 4 -59 29 -34 15 15 15 18 2 26 -14 9 -29 13 -31
8z m26 -17 c3 -5 1 -12 -5 -16 -5 -3 -10 1 -10 9 0 18 6 21 15 7z"/>
<path d="M190 1310 c0 -13 7 -20 18 -20 24 0 32 8 25 26 -8 22 -43 17 -43 -6z
m30 0 c0 -5 -4 -10 -10 -10 -5 0 -10 5 -10 10 0 6 5 10 10 10 6 0 10 -4 10
-10z"/>
<path d="M1265 1323 c12 -2 29 -19 39 -38 19 -35 66 -85 66 -70 0 4 -16 25
-35 47 -20 21 -33 43 -30 47 6 10 -19 22 -43 20 -12 -1 -11 -3 3 -6z"/>
<path d="M1499 1294 c-8 -10 -9 -15 -4 -12 6 4 28 -6 51 -21 42 -29 49 -28 74
19 l13 24 14 -27 c7 -15 18 -27 24 -27 5 0 14 -13 20 -28 8 -25 14 -27 44 -24
20 2 42 -1 50 -8 9 -8 20 -8 31 -2 14 8 3 12 -47 18 -56 8 -64 12 -67 32 -2
13 -10 22 -22 22 -11 0 -20 10 -24 25 -8 33 -21 32 -47 -4 -21 -29 -23 -29
-50 -15 -15 7 -32 21 -37 30 -8 14 -10 13 -23 -2z"/>
<path d="M1466 1255 c4 -8 8 -15 10 -15 2 0 4 7 4 15 0 8 -4 15 -10 15 -5 0
-7 -7 -4 -15z"/>
<path d="M754 1228 c-5 -8 -2 -9 9 -5 10 3 17 2 17 -2 0 -5 -6 -12 -12 -14 -8
-4 -7 -6 3 -6 22 -1 32 26 13 33 -21 8 -22 8 -30 -6z"/>
<path d="M724 1190 c0 -11 4 -20 8 -20 4 0 8 9 8 20 0 11 -4 20 -8 20 -4 0 -8
-9 -8 -20z"/>
<path d="M2031 1197 c-1 -13 -7 -16 -28 -12 -19 4 -12 -2 19 -17 33 -16 46
-28 45 -40 -5 -27 -17 -34 -17 -10 0 15 -4 20 -16 15 -9 -3 -12 -9 -7 -12 13
-9 10 -31 -6 -40 -8 -6 -9 -11 -3 -15 6 -4 15 2 21 11 9 17 11 16 29 -4 17
-20 22 -21 50 -11 38 15 45 49 10 47 -17 -1 -19 -2 -5 -6 9 -2 17 -9 17 -15 0
-5 -7 -7 -16 -4 -8 3 -12 2 -9 -4 3 -6 -3 -10 -13 -10 -24 0 -48 25 -32 35 5
3 10 17 10 30 0 29 -18 80 -26 72 -3 -3 0 -15 6 -27 10 -18 9 -21 -1 -18 -8 3
-16 15 -20 29 -5 16 -7 18 -8 6z"/>
<path d="M2763 1193 c3 -5 -9 -17 -28 -26 -23 -11 -53 -44 -93 -104 -33 -48
-74 -101 -91 -117 -17 -17 -31 -34 -31 -40 0 -21 74 62 131 147 l60 87 24 -27
c13 -16 25 -25 25 -22 0 3 -9 17 -21 30 -19 22 -19 24 -3 36 25 18 42 16 49
-6 12 -38 -6 -66 -66 -104 -59 -38 -76 -67 -40 -67 10 0 24 7 31 15 19 23 48
18 76 -12 13 -14 26 -24 29 -22 2 3 -7 17 -21 32 -27 30 -59 34 -88 12 -11 -8
-25 -15 -30 -15 -15 0 42 47 81 66 22 11 33 24 37 48 7 36 -5 79 -25 92 -7 4
-10 3 -6 -3z"/>
<path d="M1147 1163 c3 -7 1 -13 -5 -13 -5 0 -9 -13 -8 -30 1 -16 -1 -30 -6
-30 -4 0 -8 -7 -8 -15 0 -17 33 -19 65 -5 15 7 9 8 -20 5 l-40 -5 35 16 c44
21 217 33 205 15 -4 -7 -25 -12 -49 -10 -53 2 -96 -10 -96 -27 0 -14 10 -17
47 -15 11 1 24 -3 28 -8 3 -6 18 -11 33 -11 15 0 59 -16 99 -37 62 -31 71 -39
62 -55 -6 -12 -6 -18 1 -18 5 0 10 7 10 16 0 27 22 10 35 -28 13 -39 5 -66
-15 -53 -9 5 -11 4 -6 -3 4 -7 13 -12 20 -12 7 0 29 -15 49 -32 34 -31 38 -40
53 -128 16 -96 14 -184 -6 -204 -5 -5 -10 -15 -10 -20 0 -6 5 -3 11 7 5 9 18
17 29 17 10 0 21 8 24 18 5 18 10 83 6 92 -7 18 -6 100 1 126 7 24 6 42 -6 72
-9 22 -15 46 -14 53 5 24 -50 98 -94 126 -23 14 -69 37 -102 51 -33 13 -66 29
-72 34 -8 7 -13 7 -13 1 0 -6 30 -23 68 -40 37 -16 86 -42 110 -56 45 -29 92
-94 92 -127 0 -12 7 -35 16 -52 13 -24 13 -35 4 -58 -7 -16 -9 -41 -6 -57 7
-31 -7 -65 -17 -41 -3 8 -11 49 -17 92 -12 72 -16 80 -52 109 -22 17 -36 37
-33 44 2 8 0 24 -7 36 -6 12 -14 29 -18 37 -10 22 -139 91 -183 97 -21 3 -40
10 -43 14 -3 5 -21 9 -41 9 -60 0 -26 15 45 20 55 4 67 8 70 24 4 18 -1 18
-89 13 -52 -4 -106 -9 -121 -13 -21 -5 -28 -3 -28 9 0 9 8 16 18 16 9 1 60 5
112 9 110 9 178 -1 203 -30 19 -22 22 -17 7 12 -6 12 -27 21 -62 26 -68 10
-200 7 -232 -6 -14 -5 -28 -5 -31 -1 -9 15 24 34 49 29 14 -3 31 -1 38 4 8 5
-9 8 -43 6 -41 -2 -55 -6 -52 -15z m535 -604 c-4 -48 -13 -72 -21 -63 -12 14
-1 106 13 101 6 -2 10 -18 8 -38z"/>
<path d="M2556 1165 c-9 -26 -7 -32 5 -12 6 10 9 21 6 23 -2 3 -7 -2 -11 -11z"/>
<path d="M380 1150 c0 -5 5 -10 11 -10 5 0 7 5 4 10 -3 6 -8 10 -11 10 -2 0
-4 -4 -4 -10z"/>
<path d="M462 1113 c-59 -71 -82 -124 -82 -185 0 -29 -7 -88 -15 -131 -19
-101 -19 -147 -1 -147 17 0 18 3 46 134 11 54 29 118 40 142 22 47 25 70 11
78 -5 4 -7 -3 -4 -13 6 -23 -14 -64 -27 -56 -6 4 -4 15 4 28 10 15 11 28 5 42
-9 18 -9 18 -5 -3 3 -15 -3 -31 -14 -42 -17 -17 -17 -21 -5 -28 15 -8 11 -37
-34 -225 -24 -100 -28 -28 -6 90 8 43 15 100 15 126 0 58 26 112 87 185 25 28
40 52 35 52 -6 0 -28 -21 -50 -47z"/>
<path d="M690 1150 c-8 -5 -40 -10 -70 -11 -31 -1 -43 -4 -27 -6 25 -4 28 -8
23 -29 -4 -14 -2 -24 4 -24 5 0 10 11 10 24 0 19 6 25 33 28 17 3 39 7 47 9
14 4 20 -14 36 -100 10 -49 12 -13 2 44 -11 69 -26 86 -58 65z"/>
<path d="M2590 1154 c0 -6 9 -22 19 -36 20 -24 20 -25 -2 -61 -13 -20 -44 -61
-71 -89 -80 -88 -152 -191 -247 -351 -35 -59 -77 -129 -92 -155 -16 -25 -31
-62 -35 -82 -6 -43 -35 -113 -62 -150 -11 -16 -20 -37 -20 -47 0 -23 -30 -53
-52 -53 -8 0 -34 -20 -59 -44 -32 -34 -47 -42 -56 -34 -21 17 -15 68 15 117
48 78 112 217 112 243 0 34 -27 32 -39 -4 -10 -28 -171 -241 -192 -254 -11 -6
-38 23 -39 42 0 22 52 120 90 169 22 27 49 76 62 110 12 33 31 76 42 95 16 28
17 32 4 22 -9 -8 -29 -44 -43 -82 -14 -37 -44 -92 -65 -121 -43 -59 -100 -172
-100 -198 1 -23 24 -51 44 -51 19 0 180 198 204 250 11 25 17 30 19 18 4 -14
-33 -91 -123 -258 -24 -44 -12 -120 19 -120 7 0 32 20 56 45 24 24 53 45 64
47 12 2 28 16 36 33 8 17 20 41 28 55 29 52 55 116 62 155 5 22 22 63 39 90
17 28 53 87 79 133 83 143 174 275 253 365 66 75 128 169 101 153 -6 -4 -11
-4 -11 1 -1 13 -40 59 -40 47z"/>
<path d="M2320 1140 c-6 -4 8 -7 32 -8 24 -1 57 -8 73 -16 50 -23 102 -37 117
-31 8 3 21 -1 28 -10 7 -8 16 -15 20 -15 11 0 8 27 -4 28 -6 1 -27 4 -46 6
-53 7 -94 18 -108 29 -17 13 -98 26 -112 17z"/>
<path d="M773 1115 c12 -8 14 -15 8 -20 -6 -3 -11 -24 -11 -45 0 -21 -5 -51
-10 -66 -8 -21 -7 -32 6 -52 18 -27 18 -34 15 -367 -1 -93 0 -194 2 -223 3
-29 0 -55 -4 -58 -5 -3 -9 8 -9 25 0 33 -50 115 -76 125 -34 13 -37 5 -6 -14
18 -11 37 -31 42 -44 5 -13 14 -27 19 -31 6 -3 11 -27 11 -53 0 -34 3 -43 10
-32 9 13 10 13 11 0 0 -8 5 -1 10 15 6 19 5 79 -1 160 -6 84 -6 168 0 238 10
117 5 243 -10 262 -11 13 -1 143 11 151 17 10 9 32 -13 37 -21 6 -22 5 -5 -8z"/>
<path d="M1512 1108 c8 -13 40 -35 71 -50 55 -27 56 -28 54 -67 -3 -51 10 -44
15 8 3 39 3 39 -49 61 -29 12 -62 33 -72 46 -24 30 -38 32 -19 2z"/>
<path d="M2911 1087 c0 -15 6 -42 15 -59 25 -48 44 -210 39 -333 l-4 -110 10
95 c11 111 -2 255 -31 340 -10 30 -20 64 -23 75 -3 15 -5 13 -6 -8z"/>
<path d="M2370 1092 c0 -22 12 -41 23 -36 7 2 34 -14 61 -36 27 -22 54 -39 60
-37 25 8 14 36 -29 71 -44 36 -115 60 -115 38z m99 -43 c46 -36 63 -59 45 -59
-4 0 -24 16 -45 35 -21 19 -50 37 -64 41 -29 7 -34 24 -6 24 10 0 41 -18 70
-41z"/>
<path d="M1130 1025 c-7 -8 -21 -15 -32 -15 -53 0 -111 -114 -89 -175 5 -16
13 -49 17 -72 6 -38 34 -83 34 -55 0 6 -4 13 -9 16 -5 3 -12 27 -16 53 -4 27
-11 54 -17 60 -13 17 -3 70 21 110 34 55 155 98 177 62 3 -5 14 -9 25 -9 22 0
24 -11 7 -28 -7 -7 -8 -12 -4 -12 5 0 3 -7 -4 -15 -7 -8 -27 -15 -44 -15 -18
0 -41 -7 -52 -16 -18 -15 -18 -15 3 -5 12 6 38 11 57 11 20 0 36 5 36 11 0 5
4 8 8 5 5 -3 9 0 9 7 0 7 3 22 7 34 6 18 1 24 -26 37 -55 25 -93 29 -108 11z"/>
<path d="M680 990 c28 -40 58 -68 64 -58 1 1 -20 26 -47 53 l-49 50 32 -45z"/>
<path d="M1542 1023 c-6 -2 -9 -9 -6 -15 4 -7 9 -6 14 2 6 9 14 8 34 -5 14
-10 26 -13 26 -8 0 8 -45 35 -53 32 -1 0 -8 -3 -15 -6z"/>
<path d="M2150 985 c-7 -8 -18 -15 -25 -15 -18 0 -107 -107 -144 -175 -19 -33
-45 -77 -59 -98 -14 -20 -23 -39 -21 -42 5 -5 53 66 93 139 33 59 124 166 141
166 7 0 18 7 25 15 17 20 34 8 18 -13 -11 -15 -11 -15 3 -4 9 7 25 9 35 6 13
-5 10 0 -8 14 -31 26 -41 27 -58 7z"/>
<path d="M2588 940 c-37 -33 -62 -48 -72 -44 -9 3 -16 1 -16 -5 0 -24 40 -9
94 35 31 26 56 50 56 55 0 13 0 13 -62 -41z"/>
<path d="M1304 922 c-31 -31 -70 -63 -88 -71 -18 -10 -32 -25 -34 -38 -2 -13
-15 -32 -30 -44 -23 -18 -24 -21 -7 -17 11 2 29 21 40 43 12 21 32 44 47 49
14 6 51 37 81 68 50 52 56 56 73 43 24 -18 40 -19 25 -1 -27 32 -50 26 -107
-32z"/>
<path d="M2259 967 c-13 -7 -25 -20 -27 -30 -3 -14 2 -12 22 8 29 29 46 26 46
-9 0 -13 7 -29 15 -36 14 -12 14 -15 -3 -34 -32 -36 -113 -158 -109 -163 3 -2
23 22 46 54 77 111 103 143 117 143 7 0 25 -12 39 -27 27 -30 34 -21 10 11 -9
12 -29 20 -52 22 -21 1 -42 2 -47 3 -4 1 -6 12 -3 26 6 33 -20 48 -54 32z"/>
<path d="M2173 923 c-18 -14 -48 -29 -65 -34 l-33 -8 32 3 c18 1 34 0 35 -4 2
-3 18 11 37 32 39 44 38 46 -6 11z"/>
<path d="M2598 912 c-26 -20 -62 -46 -80 -57 -38 -24 -145 -148 -173 -202 -11
-21 -34 -60 -51 -88 -37 -59 -89 -168 -116 -245 -20 -56 -33 -216 -18 -239 12
-20 35 -2 57 42 22 46 35 50 97 32 34 -9 49 7 36 40 -10 26 4 45 32 45 11 0
23 11 28 25 5 14 16 25 25 25 11 0 15 11 14 48 0 35 -3 42 -9 27 -4 -11 -6
-30 -3 -43 4 -16 1 -22 -11 -22 -9 0 -21 -11 -26 -25 -6 -15 -17 -25 -29 -25
-26 0 -41 -28 -30 -57 10 -27 -1 -36 -33 -24 -21 8 -76 8 -82 -1 -1 -2 -10
-20 -20 -40 -16 -37 -35 -57 -37 -41 -10 60 -4 157 14 213 33 107 148 319 233
430 44 59 118 130 133 130 5 0 24 12 42 27 l32 27 -7 -25 c-6 -21 -5 -22 4 -6
7 10 9 21 6 24 -3 4 1 15 11 25 24 27 13 21 -39 -20z"/>
<path d="M1440 922 c0 -6 12 -20 27 -32 20 -16 24 -23 15 -32 -20 -20 -14 -38
27 -77 32 -31 37 -41 28 -52 -7 -8 2 -3 18 11 46 38 53 45 25 28 -24 -15 -26
-14 -64 24 -35 37 -37 42 -25 64 7 13 10 25 8 26 -2 2 -16 14 -31 27 -16 14
-28 20 -28 13z"/>
<path d="M812 830 c-5 -453 -8 -578 -16 -595 -8 -17 -7 -18 5 -7 11 10 14 63
16 255 1 133 5 267 8 297 3 30 2 75 -3 100 -8 40 -9 34 -10 -50z"/>
<path d="M748 879 c-19 -11 -24 -54 -8 -64 6 -3 10 -15 10 -26 0 -12 7 -19 18
-18 10 0 12 3 5 6 -7 2 -13 11 -13 19 0 8 -5 23 -12 34 -10 15 -9 23 6 39 21
23 20 25 -6 10z"/>
<path d="M2135 815 c-20 -36 -45 -86 -55 -113 -10 -26 -25 -64 -34 -84 -9 -21
-16 -53 -16 -71 0 -20 -7 -40 -16 -48 -14 -11 -18 -10 -30 6 -8 11 -11 28 -8
39 4 12 3 18 -1 14 -5 -5 -9 -21 -10 -38 -1 -25 3 -32 23 -37 19 -4 30 0 44
17 16 20 21 21 29 9 6 -10 9 -10 9 -1 0 7 -7 15 -15 18 -8 4 -15 17 -15 29 0
25 50 147 96 235 34 65 45 90 39 90 -2 0 -20 -29 -40 -65z"/>
<path d="M1722 798 l1 -43 4 38 c5 43 9 45 40 15 l23 -21 -26 -24 c-22 -20
-25 -31 -22 -72 2 -38 -2 -54 -17 -71 l-20 -23 27 17 c25 16 26 22 21 65 -5
42 -2 51 21 76 32 35 32 39 0 64 -42 33 -54 27 -52 -21z"/>
<path d="M2669 757 c-6 -14 -7 -31 -1 -47 14 -37 -4 -68 -42 -72 -24 -2 -32
-8 -34 -26 -2 -13 -14 -28 -28 -34 -13 -6 -24 -15 -24 -19 0 -4 -7 -15 -16
-23 -14 -15 -14 -16 0 -16 9 0 16 7 16 15 0 15 49 45 74 45 8 0 16 -10 18 -22
2 -14 12 5 29 53 18 53 23 82 18 102 -9 33 -2 60 14 50 6 -3 7 -1 3 5 -10 17
-15 15 -27 -11z m-19 -136 c0 -24 -13 -38 -31 -34 -19 5 -25 23 -12 36 10 10
43 8 43 -2z"/>
<path d="M1961 704 c-1 -11 -23 -45 -51 -75 -27 -30 -49 -58 -50 -63 0 -12 35
20 80 74 28 34 35 50 29 65 -7 20 -8 20 -8 -1z"/>
<path d="M1832 495 c-18 -30 -42 -60 -53 -65 -10 -6 -19 -15 -19 -21 0 -6 12
-1 28 11 30 24 85 106 80 121 -2 5 -18 -15 -36 -46z"/>
<path d="M2460 545 c0 -4 8 -13 17 -20 15 -11 15 -17 5 -39 -12 -27 -36 -34
-47 -16 -5 8 -11 7 -20 0 -10 -8 -19 -8 -34 -1 -48 26 -83 7 -130 -69 -31 -51
-26 -62 7 -14 43 65 68 86 94 82 17 -2 24 -10 26 -31 3 -25 1 -27 -22 -21 -14
3 -26 2 -26 -3 0 -11 76 -10 87 1 4 4 2 6 -6 4 -8 -1 -16 4 -18 13 -5 19 35
33 52 19 16 -13 42 9 50 40 4 19 0 31 -14 44 -12 11 -21 16 -21 11z"/>
<path d="M2618 486 c-16 -16 -28 -39 -28 -50 0 -12 -4 -26 -9 -32 -12 -13 -23
-76 -12 -70 5 3 11 18 14 33 15 74 22 90 46 110 20 17 30 19 46 11 19 -11 19
-11 -4 -20 -14 -5 -21 -14 -18 -22 3 -8 -1 -17 -9 -20 -21 -8 -18 -46 5 -46
35 0 66 -35 66 -76 0 -27 4 -38 17 -40 10 -1 20 1 23 6 7 12 -6 41 -15 35 -5
-3 -11 -1 -14 4 -3 5 6 11 19 14 19 3 31 -2 45 -21 11 -13 20 -29 20 -33 0 -5
9 -9 20 -9 11 0 20 4 20 10 0 5 -7 7 -15 4 -9 -4 -18 3 -24 18 -12 32 -37 52
-57 44 -11 -4 -27 5 -48 28 -17 18 -39 32 -48 31 -22 -4 -23 8 -3 25 9 7 13
15 10 18 -3 3 4 11 15 19 27 19 25 29 -7 45 -26 13 -30 11 -55 -16z m129 -202
c-3 -3 -12 -4 -19 -1 -8 3 -5 6 6 6 11 1 17 -2 13 -5z"/>
<path d="M1867 446 c-21 -47 -23 -55 -7 -36 19 25 45 88 38 94 -1 2 -15 -24
-31 -58z"/>
<path d="M2437 423 c-4 -3 -7 -13 -7 -22 1 -13 3 -13 11 2 11 19 8 33 -4 20z"/>
<path d="M2506 303 c-8 -21 17 -48 38 -40 9 4 16 18 16 32 0 20 -5 25 -24 25
-13 0 -27 -8 -30 -17z m44 -7 c0 -8 -5 -18 -11 -22 -14 -8 -33 11 -25 25 10
16 36 13 36 -3z"/>
<path d="M1500 296 c0 -9 5 -16 11 -16 13 0 39 -25 39 -38 0 -5 9 -17 20 -27
11 -10 20 -13 20 -8 0 6 -7 16 -15 23 -8 7 -15 18 -15 26 0 7 -13 22 -30 34
-25 18 -30 19 -30 6z"/>
<path d="M650 191 c0 -16 6 -21 26 -21 33 0 30 33 -4 38 -17 3 -22 -2 -22 -17z
m35 -1 c3 -5 -1 -10 -9 -10 -9 0 -16 5 -16 10 0 6 4 10 9 10 6 0 13 -4 16 -10z"/>
<path d="M939 108 c-11 -37 5 -56 35 -45 21 8 8 47 -15 47 -11 0 -19 -1 -20
-2z m31 -23 c0 -8 -4 -15 -10 -15 -5 0 -10 7 -10 15 0 8 5 15 10 15 6 0 10 -7
10 -15z"/>
<path d="M597 94 c-9 -10 4 -34 19 -34 8 0 14 9 14 20 0 19 -19 27 -33 14z"/>
<path d="M732 63 c5 -26 38 -29 38 -4 0 15 -6 21 -21 21 -14 0 -19 -5 -17 -17z
m28 -3 c0 -5 -4 -10 -10 -10 -5 0 -10 5 -10 10 0 6 5 10 10 10 6 0 10 -4 10
-10z"/>
<path d="M530 40 c0 -13 7 -20 20 -20 13 0 20 7 20 20 0 13 -7 20 -20 20 -13
0 -20 -7 -20 -20z m30 0 c0 -5 -4 -10 -10 -10 -5 0 -10 5 -10 10 0 6 5 10 10
10 6 0 10 -4 10 -10z"/>
<path d="M647 23 c-13 -13 -7 -25 7 -14 11 9 15 9 19 -1 4 -8 6 -7 6 5 1 17
-19 23 -32 10z"/>
</g>
</svg>
